<svg xmlns="http://www.w3.org/2000/svg" xmlns:xlink="http://www.w3.org/1999/xlink" width="240" height="130" viewBox="0 0 240 130">
  <defs>
    <style>
      .cls-empty-1, .cls-empty-8 {
        fill: #fff;
      }

      .cls-empty-1 {
        stroke: #707070;
      }

      .cls-empty-2 {
        fill: none;
      }

      .cls-empty-3 {
        fill: #e8ecef;
      }

      .cls-empty-4 {
        fill: url(#radial-gradient);
      }

      .cls-empty-5 {
        clip-path: url(#clip-path);
      }

      .cls-empty-6 {
        opacity: 0.3;
      }

      .cls-empty-53, .cls-empty-55, .cls-empty-6 {
        isolation: isolate;
      }

      .cls-empty-7 {
        clip-path: url(#clip-path-2);
      }

      .cls-empty-9 {
        fill: #fefefe;
      }

      .cls-empty-10 {
        fill: #fdfdfd;
      }

      .cls-empty-11 {
        fill: #fcfcfd;
      }

      .cls-empty-12 {
        fill: #fbfbfc;
      }

      .cls-empty-13 {
        fill: #fafafb;
      }

      .cls-empty-14 {
        fill: #f9f9fa;
      }

      .cls-empty-15 {
        fill: #f8f8f9;
      }

      .cls-empty-16 {
        fill: #f7f8f9;
      }

      .cls-empty-17 {
        fill: #f6f7f8;
      }

      .cls-empty-18 {
        fill: #f5f6f7;
      }

      .cls-empty-19 {
        fill: #f4f5f6;
      }

      .cls-empty-20 {
        fill: #f3f4f5;
      }

      .cls-empty-21 {
        fill: #f2f3f5;
      }

      .cls-empty-22 {
        fill: #f1f2f4;
      }

      .cls-empty-23 {
        fill: #f0f1f3;
      }

      .cls-empty-24 {
        fill: #eff0f2;
      }

      .cls-empty-25 {
        fill: #eeeff1;
      }

      .cls-empty-26 {
        fill: #edeef1;
      }

      .cls-empty-27 {
        fill: #ecedf0;
      }

      .cls-empty-28 {
        fill: #ebecef;
      }

      .cls-empty-29 {
        fill: #eaebee;
      }

      .cls-empty-30 {
        fill: #e9ebee;
      }

      .cls-empty-31 {
        fill: #e7eaed;
      }

      .cls-empty-32 {
        fill: #e6e9ec;
      }

      .cls-empty-33 {
        fill: #e5e8eb;
      }

      .cls-empty-34 {
        fill: #e4e7ea;
      }

      .cls-empty-35 {
        fill: #e3e6ea;
      }

      .cls-empty-36 {
        fill: #e2e5e9;
      }

      .cls-empty-37 {
        fill: #e1e4e8;
      }

      .cls-empty-38 {
        fill: #e0e3e7;
      }

      .cls-empty-39 {
        fill: #dfe2e6;
      }

      .cls-empty-40 {
        fill: #dee1e6;
      }

      .cls-empty-41 {
        fill: #dde0e5;
      }

      .cls-empty-42 {
        fill: #dcdfe4;
      }

      .cls-empty-43 {
        fill: #dbdee3;
      }

      .cls-empty-44 {
        fill: #dadde2;
      }

      .cls-empty-45 {
        fill: #d9dde2;
      }

      .cls-empty-46 {
        fill: #d8dce1;
      }

      .cls-empty-47 {
        fill: #d7dbe0;
      }

      .cls-empty-48 {
        fill: #d6dadf;
      }

      .cls-empty-49 {
        fill: #d5d9de;
      }

      .cls-empty-50 {
        fill: #d4d8de;
      }

      .cls-empty-51 {
        fill: #d3d7dd;
      }

      .cls-empty-52 {
        fill: #d2d6dc;
      }

      .cls-empty-53 {
        opacity: 0.69;
      }

      .cls-empty-54 {
        clip-path: url(#clip-path-3);
      }

      .cls-empty-56 {
        clip-path: url(#clip-path-4);
      }

      .cls-empty-57 {
        opacity: 0.5;
      }

      .cls-empty-58 {
        clip-path: url(#clip-path-5);
      }

      .cls-empty-59 {
        fill: #f4f6f9;
      }

      .cls-empty-60 {
        fill: #c6cbd2;
      }

      .cls-empty-61 {
        fill: #fcfdfc;
      }

      .cls-empty-62 {
        fill: #a8adb2;
      }

      .cls-empty-63 {
        fill: #dbdcdd;
      }

      .cls-empty-64 {
        clip-path: url(#clip-path-6);
      }

      .cls-empty-65 {
        opacity: 0.7;
      }
    </style>
    <radialGradient id="radial-gradient" cx="0.5" cy="0.5" r="0.5" gradientUnits="objectBoundingBox">
      <stop offset="0" stop-color="#f6f7f8"/>
      <stop offset="1" stop-color="#f6f7f8" stop-opacity="0"/>
    </radialGradient>
    <clipPath id="clip-path">
      <rect id="矩形_24579" data-name="矩形 24579" class="cls-empty-1" width="240" height="130" transform="translate(7367 -10066)"/>
    </clipPath>
    <clipPath id="clip-path-2">
      <path id="路径_25274" data-name="路径 25274" class="cls-empty-2" d="M2378.908,1538.146h0a.617.617,0,0,1,.061.87l-12.138,13.963a.617.617,0,0,1-.87.061h0a.617.617,0,0,1-.061-.87l12.138-13.963A.617.617,0,0,1,2378.908,1538.146Z" transform="translate(-2365.749 -1537.995)"/>
    </clipPath>
    <clipPath id="clip-path-3">
      <path id="路径_25285" data-name="路径 25285" class="cls-empty-3" d="M2111.548,1569.3h0a.534.534,0,0,1,.052.754l-15.777,18.15a.534.534,0,0,1-.754.053h0a.535.535,0,0,1-.053-.754l15.778-18.15A.535.535,0,0,1,2111.548,1569.3Z" transform="translate(-2094.885 -1569.165)"/>
    </clipPath>
    <clipPath id="clip-path-4">
      <path id="路径_25298" data-name="路径 25298" class="cls-empty-3" d="M2489.617,1607.822h0a.535.535,0,0,1,.052.754l-10.519,12.1a.534.534,0,0,1-.754.053h0a.534.534,0,0,1-.052-.754l10.518-12.1A.535.535,0,0,1,2489.617,1607.822Z" transform="translate(-2478.213 -1607.691)"/>
    </clipPath>
    <clipPath id="clip-path-5">
      <path id="路径_25311" data-name="路径 25311" class="cls-empty-3" d="M2377.153,1538.126h0a.534.534,0,0,1,.053.754l-10.519,12.1a.535.535,0,0,1-.754.053h0a.535.535,0,0,1-.053-.754l10.519-12.1A.535.535,0,0,1,2377.153,1538.126Z" transform="translate(-2365.75 -1537.995)"/>
    </clipPath>
    <clipPath id="clip-path-6">
      <path id="减去_305" data-name="减去 305" class="cls-empty-4" d="M104.016,212.8a105.976,105.976,0,0,1-68.661-25.116c1.093.082,2.209.124,3.317.124h.116a44.207,44.207,0,0,0,15.937-2.961h14.22a42.971,42.971,0,0,0,32.149,14.471l.364,0h.364a42.974,42.974,0,0,0,32.149-14.471h21.292a43.667,43.667,0,0,0,10.236,0h10.4a106.453,106.453,0,0,1-32.65,20.485A105.88,105.88,0,0,1,104.016,212.8Zm-28.7-82.84c-7.381-12.384-21.4-20.077-36.578-20.077h-.041a44.44,44.44,0,0,0-13.773,2.185A49.468,49.468,0,0,0,0,83.9,105.541,105.541,0,0,1,13.429,50.558a106.441,106.441,0,0,1,181.344.281,105.54,105.54,0,0,1,13.353,33.5,50.332,50.332,0,0,0-24.791,29.28,43.813,43.813,0,0,0-22.8-6.4h-.152c-15.23,0-29.268,7.729-36.635,20.171a43.9,43.9,0,0,0-22.149-6h-.345a43.868,43.868,0,0,0-25.944,8.566Z"/>
    </clipPath>
  </defs>
  <g id="蒙版组_2601" data-name="蒙版组 2601" class="cls-empty-5" transform="translate(-7367 10066)">
    <g id="组_46100" data-name="组 46100" transform="translate(7382.983 -10066)">
      <path id="减去_304" data-name="减去 304" class="cls-empty-4" d="M104.016,212.8a105.976,105.976,0,0,1-68.661-25.116c1.093.082,2.209.124,3.317.124h.116a44.207,44.207,0,0,0,15.937-2.961h14.22a42.971,42.971,0,0,0,32.149,14.471l.364,0h.364a42.974,42.974,0,0,0,32.149-14.471h21.292a43.667,43.667,0,0,0,10.236,0h10.4a106.453,106.453,0,0,1-32.65,20.485A105.88,105.88,0,0,1,104.016,212.8Zm-28.7-82.84c-7.381-12.384-21.4-20.077-36.578-20.077h-.041a44.44,44.44,0,0,0-13.773,2.185A49.468,49.468,0,0,0,0,83.9,105.541,105.541,0,0,1,13.429,50.558a106.441,106.441,0,0,1,181.344.281,105.54,105.54,0,0,1,13.353,33.5,50.332,50.332,0,0,0-24.791,29.28,43.813,43.813,0,0,0-22.8-6.4h-.152c-15.23,0-29.268,7.729-36.635,20.171a43.9,43.9,0,0,0-22.149-6h-.345a43.868,43.868,0,0,0-25.944,8.566Z" transform="translate(0 0)"/>
      <g id="矩形_4436" data-name="矩形 4436" class="cls-empty-6" transform="translate(150.665 46.764)">
        <g id="组_46081" data-name="组 46081">
          <g id="组_46080" data-name="组 46080" class="cls-empty-7">
            <path id="路径_25262" data-name="路径 25262" class="cls-empty-8" d="M2399.43,1538.28l-.542-.471h.542Z" transform="translate(-2385.986 -1537.881)"/>
            <path id="路径_25263" data-name="路径 25263" class="cls-empty-8" d="M2398.381,1538.861l-1.21-1.052h.669l.541.471Z" transform="translate(-2384.938 -1537.881)"/>
            <path id="路径_25264" data-name="路径 25264" class="cls-empty-9" d="M2397.333,1539.442l-1.879-1.633h.669l1.21,1.052Z" transform="translate(-2383.889 -1537.881)"/>
            <path id="路径_25265" data-name="路径 25265" class="cls-empty-10" d="M2396.284,1540.023l-2.547-2.214h.668l1.878,1.633Z" transform="translate(-2382.841 -1537.881)"/>
            <path id="路径_25266" data-name="路径 25266" class="cls-empty-11" d="M2395.454,1540.6l-3.076-2.674.105-.121h.424l2.547,2.214Z" transform="translate(-2382.01 -1537.881)"/>
            <path id="路径_25267" data-name="路径 25267" class="cls-empty-12" d="M2395,1541.209l-.082.094-3.282-2.853.288-.331,3.076,2.674Z" transform="translate(-2381.559 -1538.071)"/>
            <rect id="矩形_24437" data-name="矩形 24437" class="cls-empty-13" width="0.439" height="4.348" transform="translate(9.792 0.711) rotate(-49)"/>
            <rect id="矩形_24438" data-name="矩形 24438" class="cls-empty-14" width="0.439" height="4.348" transform="translate(9.504 1.042) rotate(-49)"/>
            <rect id="矩形_24439" data-name="矩形 24439" class="cls-empty-15" width="0.439" height="4.348" transform="translate(9.217 1.373) rotate(-49)"/>
            <rect id="矩形_24440" data-name="矩形 24440" class="cls-empty-16" width="0.439" height="4.348" transform="translate(8.929 1.704) rotate(-49)"/>
            <rect id="矩形_24441" data-name="矩形 24441" class="cls-empty-17" width="0.439" height="4.348" transform="translate(8.641 2.035) rotate(-49)"/>
            <rect id="矩形_24442" data-name="矩形 24442" class="cls-empty-18" width="0.439" height="4.348" transform="translate(8.353 2.366) rotate(-49)"/>
            <rect id="矩形_24443" data-name="矩形 24443" class="cls-empty-19" width="0.439" height="4.348" transform="translate(8.066 2.697) rotate(-49)"/>
            <rect id="矩形_24444" data-name="矩形 24444" class="cls-empty-20" width="0.439" height="4.348" transform="translate(7.778 3.028) rotate(-49)"/>
            <rect id="矩形_24445" data-name="矩形 24445" class="cls-empty-21" width="0.439" height="4.348" transform="translate(7.49 3.359) rotate(-49)"/>
            <rect id="矩形_24446" data-name="矩形 24446" class="cls-empty-22" width="0.439" height="4.348" transform="translate(7.203 3.69) rotate(-49)"/>
            <rect id="矩形_24447" data-name="矩形 24447" class="cls-empty-23" width="0.439" height="4.348" transform="translate(6.915 4.021) rotate(-49)"/>
            <rect id="矩形_24448" data-name="矩形 24448" class="cls-empty-24" width="0.439" height="4.348" transform="translate(6.627 4.352) rotate(-49)"/>
            <rect id="矩形_24449" data-name="矩形 24449" class="cls-empty-25" width="0.439" height="4.348" transform="translate(6.34 4.683) rotate(-49)"/>
            <rect id="矩形_24450" data-name="矩形 24450" class="cls-empty-26" width="0.439" height="4.348" transform="translate(6.052 5.014) rotate(-49)"/>
            <rect id="矩形_24451" data-name="矩形 24451" class="cls-empty-27" width="0.439" height="4.348" transform="translate(5.764 5.345) rotate(-49)"/>
            <rect id="矩形_24452" data-name="矩形 24452" class="cls-empty-28" width="0.439" height="4.348" transform="translate(5.476 5.675) rotate(-49)"/>
            <rect id="矩形_24453" data-name="矩形 24453" class="cls-empty-29" width="0.439" height="4.348" transform="translate(5.189 6.006) rotate(-49)"/>
            <rect id="矩形_24454" data-name="矩形 24454" class="cls-empty-30" width="0.439" height="4.348" transform="translate(4.901 6.337) rotate(-49)"/>
            <rect id="矩形_24455" data-name="矩形 24455" class="cls-empty-31" width="0.439" height="4.348" transform="translate(4.613 6.668) rotate(-49)"/>
            <rect id="矩形_24456" data-name="矩形 24456" class="cls-empty-32" width="0.439" height="4.348" transform="translate(4.326 6.999) rotate(-49)"/>
            <rect id="矩形_24457" data-name="矩形 24457" class="cls-empty-33" width="0.439" height="4.348" transform="translate(4.038 7.33) rotate(-49)"/>
            <rect id="矩形_24458" data-name="矩形 24458" class="cls-empty-34" width="0.439" height="4.348" transform="translate(3.75 7.661) rotate(-49)"/>
            <rect id="矩形_24459" data-name="矩形 24459" class="cls-empty-35" width="0.439" height="4.348" transform="translate(3.462 7.992) rotate(-49)"/>
            <rect id="矩形_24460" data-name="矩形 24460" class="cls-empty-36" width="0.439" height="4.348" transform="translate(3.175 8.323) rotate(-49)"/>
            <rect id="矩形_24461" data-name="矩形 24461" class="cls-empty-37" width="0.439" height="4.348" transform="translate(2.887 8.654) rotate(-49)"/>
            <rect id="矩形_24462" data-name="矩形 24462" class="cls-empty-38" width="0.439" height="4.348" transform="translate(2.599 8.985) rotate(-49)"/>
            <rect id="矩形_24463" data-name="矩形 24463" class="cls-empty-39" width="0.439" height="4.348" transform="translate(2.312 9.316) rotate(-49)"/>
            <rect id="矩形_24464" data-name="矩形 24464" class="cls-empty-40" width="0.439" height="4.348" transform="translate(2.024 9.647) rotate(-49)"/>
            <rect id="矩形_24465" data-name="矩形 24465" class="cls-empty-41" width="0.439" height="4.348" transform="translate(1.736 9.978) rotate(-49)"/>
            <rect id="矩形_24466" data-name="矩形 24466" class="cls-empty-42" width="0.439" height="4.348" transform="translate(1.448 10.309) rotate(-49)"/>
            <rect id="矩形_24467" data-name="矩形 24467" class="cls-empty-43" width="0.439" height="4.348" transform="translate(1.161 10.64) rotate(-49)"/>
            <rect id="矩形_24468" data-name="矩形 24468" class="cls-empty-44" width="0.439" height="4.348" transform="translate(0.873 10.971) rotate(-49)"/>
            <rect id="矩形_24469" data-name="矩形 24469" class="cls-empty-45" width="0.439" height="4.348" transform="translate(0.585 11.302) rotate(-49)"/>
            <rect id="矩形_24470" data-name="矩形 24470" class="cls-empty-46" width="0.439" height="4.348" transform="translate(0.298 11.633) rotate(-49)"/>
            <rect id="矩形_24471" data-name="矩形 24471" class="cls-empty-47" width="0.439" height="4.348" transform="translate(0.01 11.964) rotate(-49)"/>
            <path id="路径_25268" data-name="路径 25268" class="cls-empty-48" d="M2368.928,1571.577l-.288.331-3.076-2.674v-.415l.082-.094Z" transform="translate(-2365.636 -1556.76)"/>
            <path id="路径_25269" data-name="路径 25269" class="cls-empty-49" d="M2368.64,1572.707l-.105.121h-.424l-2.547-2.214v-.581Z" transform="translate(-2365.636 -1557.559)"/>
            <path id="路径_25270" data-name="路径 25270" class="cls-empty-50" d="M2367.442,1573.74l-1.878-1.633v-.581l2.547,2.214Z" transform="translate(-2365.636 -1558.471)"/>
            <path id="路径_25271" data-name="路径 25271" class="cls-empty-51" d="M2366.773,1574.651l-1.209-1.052v-.581l1.878,1.633Z" transform="translate(-2365.636 -1559.382)"/>
            <path id="路径_25272" data-name="路径 25272" class="cls-empty-52" d="M2366.105,1575.562l-.542-.471v-.581l1.209,1.052Z" transform="translate(-2365.636 -1560.294)"/>
            <path id="路径_25273" data-name="路径 25273" class="cls-empty-52" d="M2365.564,1576l.542.471h-.542Z" transform="translate(-2365.636 -1561.205)"/>
          </g>
        </g>
      </g>
      <g id="矩形_4438" data-name="矩形 4438" class="cls-empty-53" transform="translate(21.479 52.377)">
        <g id="组_46083" data-name="组 46083" transform="translate(0 0)">
          <g id="组_46082" data-name="组 46082" class="cls-empty-54">
            <path id="路径_25275" data-name="路径 25275" class="cls-empty-3" d="M2144.081,1569.387l-.469-.408h.469Z" transform="translate(-2127.171 -1569.042)"/>
            <path id="路径_25276" data-name="路径 25276" class="cls-empty-3" d="M2142.41,1570.126l-1.32-1.147h.851l.469.408Z" transform="translate(-2125.501 -1569.042)"/>
            <path id="路径_25277" data-name="路径 25277" class="cls-empty-3" d="M2140.739,1570.866l-2.171-1.887h.851l1.32,1.147Z" transform="translate(-2123.829 -1569.042)"/>
            <path id="路径_25278" data-name="路径 25278" class="cls-empty-3" d="M2139.568,1571.605l-2.767-2.405.193-.221h.4l2.171,1.887Z" transform="translate(-2122.659 -1569.042)"/>
            <path id="路径_25279" data-name="路径 25279" class="cls-empty-3" d="M2138.849,1572.2l-.29.333-2.844-2.472.366-.421,2.767,2.405Z" transform="translate(-2121.94 -1569.477)"/>
            <rect id="矩形_24472" data-name="矩形 24472" class="cls-empty-3" width="0.558" height="3.768" transform="translate(13.41 1.001) rotate(-49)"/>
            <rect id="矩形_24473" data-name="矩形 24473" class="cls-empty-3" width="0.558" height="3.768" transform="translate(13.044 1.423) rotate(-49)"/>
            <rect id="矩形_24474" data-name="矩形 24474" class="cls-empty-3" width="0.558" height="3.768" transform="translate(12.678 1.844) rotate(-49)"/>
            <rect id="矩形_24475" data-name="矩形 24475" class="cls-empty-3" width="0.558" height="3.768" transform="translate(12.311 2.265) rotate(-49)"/>
            <rect id="矩形_24476" data-name="矩形 24476" class="cls-empty-3" width="0.558" height="3.768" transform="translate(11.945 2.687) rotate(-49)"/>
            <rect id="矩形_24477" data-name="矩形 24477" class="cls-empty-3" width="0.558" height="3.768" transform="translate(11.579 3.108) rotate(-49)"/>
            <rect id="矩形_24478" data-name="矩形 24478" class="cls-empty-3" width="0.558" height="3.768" transform="translate(11.213 3.529) rotate(-49)"/>
            <rect id="矩形_24479" data-name="矩形 24479" class="cls-empty-3" width="0.558" height="3.768" transform="matrix(0.656, -0.755, 0.755, 0.656, 10.847, 3.95)"/>
            <rect id="矩形_24480" data-name="矩形 24480" class="cls-empty-3" width="0.558" height="3.768" transform="translate(10.48 4.372) rotate(-49)"/>
            <rect id="矩形_24481" data-name="矩形 24481" class="cls-empty-3" width="0.558" height="3.768" transform="translate(10.114 4.793) rotate(-49)"/>
            <rect id="矩形_24482" data-name="矩形 24482" class="cls-empty-3" width="0.558" height="3.768" transform="translate(9.748 5.214) rotate(-49)"/>
            <rect id="矩形_24483" data-name="矩形 24483" class="cls-empty-3" width="0.558" height="3.768" transform="translate(9.382 5.635) rotate(-49)"/>
            <rect id="矩形_24484" data-name="矩形 24484" class="cls-empty-3" width="0.558" height="3.768" transform="translate(9.016 6.057) rotate(-49)"/>
            <rect id="矩形_24485" data-name="矩形 24485" class="cls-empty-3" width="0.558" height="3.768" transform="translate(8.649 6.478) rotate(-49)"/>
            <rect id="矩形_24486" data-name="矩形 24486" class="cls-empty-3" width="0.558" height="3.768" transform="translate(8.283 6.899) rotate(-49)"/>
            <rect id="矩形_24487" data-name="矩形 24487" class="cls-empty-3" width="0.558" height="3.768" transform="translate(7.917 7.32) rotate(-49)"/>
            <rect id="矩形_24488" data-name="矩形 24488" class="cls-empty-3" width="0.558" height="3.768" transform="translate(7.551 7.742) rotate(-49)"/>
            <rect id="矩形_24489" data-name="矩形 24489" class="cls-empty-3" width="0.558" height="3.768" transform="translate(7.185 8.163) rotate(-49)"/>
            <rect id="矩形_24490" data-name="矩形 24490" class="cls-empty-3" width="0.558" height="3.768" transform="translate(6.818 8.584) rotate(-49)"/>
            <rect id="矩形_24491" data-name="矩形 24491" class="cls-empty-3" width="0.558" height="3.768" transform="translate(6.452 9.005) rotate(-49)"/>
            <rect id="矩形_24492" data-name="矩形 24492" class="cls-empty-3" width="0.558" height="3.768" transform="translate(6.086 9.427) rotate(-49)"/>
            <rect id="矩形_24493" data-name="矩形 24493" class="cls-empty-3" width="0.558" height="3.768" transform="translate(5.72 9.848) rotate(-49)"/>
            <rect id="矩形_24494" data-name="矩形 24494" class="cls-empty-3" width="0.558" height="3.768" transform="matrix(0.656, -0.755, 0.755, 0.656, 5.354, 10.269)"/>
            <rect id="矩形_24495" data-name="矩形 24495" class="cls-empty-3" width="0.558" height="3.768" transform="translate(4.987 10.691) rotate(-49)"/>
            <rect id="矩形_24496" data-name="矩形 24496" class="cls-empty-3" width="0.558" height="3.768" transform="translate(4.621 11.112) rotate(-49)"/>
            <rect id="矩形_24497" data-name="矩形 24497" class="cls-empty-3" width="0.558" height="3.768" transform="translate(4.255 11.533) rotate(-49)"/>
            <rect id="矩形_24498" data-name="矩形 24498" class="cls-empty-3" width="0.558" height="3.768" transform="translate(3.889 11.954) rotate(-49)"/>
            <rect id="矩形_24499" data-name="矩形 24499" class="cls-empty-3" width="0.558" height="3.768" transform="translate(3.523 12.376) rotate(-49)"/>
            <rect id="矩形_24500" data-name="矩形 24500" class="cls-empty-3" width="0.558" height="3.768" transform="translate(3.156 12.797) rotate(-49)"/>
            <rect id="矩形_24501" data-name="矩形 24501" class="cls-empty-3" width="0.558" height="3.768" transform="translate(2.79 13.218) rotate(-49)"/>
            <rect id="矩形_24502" data-name="矩形 24502" class="cls-empty-3" width="0.558" height="3.768" transform="translate(2.424 13.639) rotate(-49)"/>
            <rect id="矩形_24503" data-name="矩形 24503" class="cls-empty-3" width="0.558" height="3.768" transform="translate(2.058 14.061) rotate(-49)"/>
            <rect id="矩形_24504" data-name="矩形 24504" class="cls-empty-3" width="0.558" height="3.768" transform="translate(1.692 14.482) rotate(-49)"/>
            <rect id="矩形_24505" data-name="矩形 24505" class="cls-empty-3" width="0.558" height="3.768" transform="translate(1.325 14.903) rotate(-49)"/>
            <rect id="矩形_24506" data-name="矩形 24506" class="cls-empty-3" width="0.558" height="3.768" transform="translate(0.959 15.324) rotate(-49)"/>
            <rect id="矩形_24507" data-name="矩形 24507" class="cls-empty-3" width="0.558" height="3.768" transform="translate(0.593 15.746) rotate(-49)"/>
            <rect id="矩形_24508" data-name="矩形 24508" class="cls-empty-3" width="0.558" height="3.768" transform="matrix(0.656, -0.755, 0.755, 0.656, 0.227, 16.167)"/>
            <path id="路径_25280" data-name="路径 25280" class="cls-empty-3" d="M2097.832,1619.555l-.366.421-2.767-2.405v-.155l.289-.333Z" transform="translate(-2094.762 -1600.916)"/>
            <path id="路径_25281" data-name="路径 25281" class="cls-empty-3" d="M2097.466,1620.934l-.193.221h-.4l-2.171-1.887v-.74Z" transform="translate(-2094.762 -1601.874)"/>
            <path id="路径_25282" data-name="路径 25282" class="cls-empty-3" d="M2096.019,1622.608l-1.32-1.147v-.74l2.171,1.887Z" transform="translate(-2094.762 -1603.326)"/>
            <path id="路径_25283" data-name="路径 25283" class="cls-empty-3" d="M2095.168,1624.061l-.469-.408v-.74l1.32,1.147Z" transform="translate(-2094.762 -1604.779)"/>
            <path id="路径_25284" data-name="路径 25284" class="cls-empty-3" d="M2094.7,1625.105l.469.407h-.469Z" transform="translate(-2094.762 -1606.232)"/>
          </g>
        </g>
      </g>
      <g id="矩形_4437" data-name="矩形 4437" class="cls-empty-55" transform="translate(179.624 77.079)">
        <g id="组_46085" data-name="组 46085" transform="translate(0 0)">
          <g id="组_46084" data-name="组 46084" class="cls-empty-56">
            <path id="路径_25286" data-name="路径 25286" class="cls-empty-3" d="M2511.822,1607.913l-.469-.408h.469Z" transform="translate(-2500.172 -1607.568)"/>
            <path id="路径_25287" data-name="路径 25287" class="cls-empty-3" d="M2510.685,1608.417l-1.048-.911h.579l.469.408Z" transform="translate(-2499.035 -1607.568)"/>
            <path id="路径_25288" data-name="路径 25288" class="cls-empty-3" d="M2509.547,1608.92l-1.628-1.415h.579l1.048.911Z" transform="translate(-2497.897 -1607.568)"/>
            <path id="路径_25289" data-name="路径 25289" class="cls-empty-3" d="M2508.409,1609.424l-2.207-1.919h.58l1.627,1.415Z" transform="translate(-2496.759 -1607.568)"/>
            <path id="路径_25290" data-name="路径 25290" class="cls-empty-3" d="M2507.51,1609.927l-2.666-2.317.091-.1h.367l2.208,1.919Z" transform="translate(-2495.859 -1607.568)"/>
            <path id="路径_25291" data-name="路径 25291" class="cls-empty-3" d="M2507.019,1610.493l-.071.082-2.844-2.472.249-.287,2.666,2.317Z" transform="translate(-2495.369 -1607.774)"/>
            <rect id="矩形_24509" data-name="矩形 24509" class="cls-empty-3" width="0.38" height="3.768" transform="translate(8.486 0.616) rotate(-49)"/>
            <rect id="矩形_24510" data-name="矩形 24510" class="cls-empty-3" width="0.38" height="3.768" transform="translate(8.236 0.903) rotate(-49)"/>
            <rect id="矩形_24511" data-name="矩形 24511" class="cls-empty-3" width="0.38" height="3.768" transform="translate(7.987 1.19) rotate(-49)"/>
            <rect id="矩形_24512" data-name="矩形 24512" class="cls-empty-3" width="0.38" height="3.768" transform="translate(7.738 1.477) rotate(-49)"/>
            <rect id="矩形_24513" data-name="矩形 24513" class="cls-empty-3" width="0.38" height="3.768" transform="translate(7.488 1.763) rotate(-49)"/>
            <rect id="矩形_24514" data-name="矩形 24514" class="cls-empty-3" width="0.38" height="3.768" transform="translate(7.239 2.05) rotate(-49)"/>
            <rect id="矩形_24515" data-name="矩形 24515" class="cls-empty-3" width="0.38" height="3.768" transform="translate(6.99 2.337) rotate(-49)"/>
            <rect id="矩形_24516" data-name="矩形 24516" class="cls-empty-3" width="0.38" height="3.768" transform="translate(6.74 2.624) rotate(-49)"/>
            <rect id="矩形_24517" data-name="矩形 24517" class="cls-empty-3" width="0.38" height="3.768" transform="translate(6.491 2.911) rotate(-49)"/>
            <rect id="矩形_24518" data-name="矩形 24518" class="cls-empty-3" width="0.38" height="3.768" transform="translate(6.242 3.197) rotate(-49)"/>
            <rect id="矩形_24519" data-name="矩形 24519" class="cls-empty-3" width="0.38" height="3.768" transform="translate(5.993 3.484) rotate(-49)"/>
            <rect id="矩形_24520" data-name="矩形 24520" class="cls-empty-3" width="0.38" height="3.768" transform="translate(5.743 3.771) rotate(-49)"/>
            <rect id="矩形_24521" data-name="矩形 24521" class="cls-empty-3" width="0.38" height="3.768" transform="translate(5.494 4.058) rotate(-49)"/>
            <rect id="矩形_24522" data-name="矩形 24522" class="cls-empty-3" width="0.38" height="3.768" transform="translate(5.245 4.345) rotate(-49)"/>
            <rect id="矩形_24523" data-name="矩形 24523" class="cls-empty-3" width="0.38" height="3.768" transform="translate(4.995 4.632) rotate(-49)"/>
            <rect id="矩形_24524" data-name="矩形 24524" class="cls-empty-3" width="0.38" height="3.768" transform="translate(4.746 4.918) rotate(-49)"/>
            <rect id="矩形_24525" data-name="矩形 24525" class="cls-empty-3" width="0.38" height="3.768" transform="translate(4.497 5.205) rotate(-49)"/>
            <rect id="矩形_24526" data-name="矩形 24526" class="cls-empty-3" width="0.38" height="3.768" transform="translate(4.247 5.492) rotate(-49)"/>
            <rect id="矩形_24527" data-name="矩形 24527" class="cls-empty-3" width="0.38" height="3.768" transform="translate(3.998 5.779) rotate(-49)"/>
            <rect id="矩形_24528" data-name="矩形 24528" class="cls-empty-3" width="0.38" height="3.768" transform="translate(3.749 6.066) rotate(-49)"/>
            <rect id="矩形_24529" data-name="矩形 24529" class="cls-empty-3" width="0.38" height="3.768" transform="translate(3.499 6.352) rotate(-49)"/>
            <rect id="矩形_24530" data-name="矩形 24530" class="cls-empty-3" width="0.38" height="3.768" transform="translate(3.25 6.639) rotate(-49)"/>
            <rect id="矩形_24531" data-name="矩形 24531" class="cls-empty-3" width="0.38" height="3.768" transform="translate(3.001 6.926) rotate(-49)"/>
            <rect id="矩形_24532" data-name="矩形 24532" class="cls-empty-3" width="0.38" height="3.768" transform="translate(2.751 7.213) rotate(-49)"/>
            <rect id="矩形_24533" data-name="矩形 24533" class="cls-empty-3" width="0.38" height="3.768" transform="translate(2.502 7.5) rotate(-49)"/>
            <rect id="矩形_24534" data-name="矩形 24534" class="cls-empty-3" width="0.38" height="3.768" transform="translate(2.253 7.787) rotate(-49)"/>
            <rect id="矩形_24535" data-name="矩形 24535" class="cls-empty-3" width="0.38" height="3.768" transform="translate(2.003 8.073) rotate(-49)"/>
            <rect id="矩形_24536" data-name="矩形 24536" class="cls-empty-3" width="0.38" height="3.768" transform="translate(1.754 8.36) rotate(-49)"/>
            <rect id="矩形_24537" data-name="矩形 24537" class="cls-empty-3" width="0.38" height="3.768" transform="translate(1.505 8.647) rotate(-49)"/>
            <rect id="矩形_24538" data-name="矩形 24538" class="cls-empty-3" width="0.38" height="3.768" transform="translate(1.255 8.934) rotate(-49)"/>
            <rect id="矩形_24539" data-name="矩形 24539" class="cls-empty-3" width="0.38" height="3.768" transform="translate(1.006 9.221) rotate(-49)"/>
            <rect id="矩形_24540" data-name="矩形 24540" class="cls-empty-3" width="0.38" height="3.768" transform="translate(0.757 9.507) rotate(-49)"/>
            <rect id="矩形_24541" data-name="矩形 24541" class="cls-empty-3" width="0.38" height="3.768" transform="translate(0.507 9.794) rotate(-49)"/>
            <rect id="矩形_24542" data-name="矩形 24542" class="cls-empty-3" width="0.38" height="3.768" transform="translate(0.258 10.081) rotate(-49)"/>
            <rect id="矩形_24543" data-name="矩形 24543" class="cls-empty-3" width="0.38" height="3.768" transform="translate(0.009 10.368) rotate(-49)"/>
            <path id="路径_25292" data-name="路径 25292" class="cls-empty-3" d="M2480.944,1640.892l-.25.287-2.666-2.317v-.36l.071-.082Z" transform="translate(-2478.091 -1628.053)"/>
            <path id="路径_25293" data-name="路径 25293" class="cls-empty-3" d="M2480.694,1642.047l-.091.1h-.367l-2.207-1.918v-.5Z" transform="translate(-2478.091 -1628.92)"/>
            <path id="路径_25294" data-name="路径 25294" class="cls-empty-3" d="M2479.656,1643.14l-1.627-1.415v-.5l2.207,1.918Z" transform="translate(-2478.091 -1629.909)"/>
            <path id="路径_25295" data-name="路径 25295" class="cls-empty-3" d="M2479.077,1644.129l-1.048-.911v-.5l1.627,1.415Z" transform="translate(-2478.091 -1630.898)"/>
            <path id="路径_25296" data-name="路径 25296" class="cls-empty-3" d="M2478.5,1645.118l-.469-.408v-.5l1.048.911Z" transform="translate(-2478.091 -1631.887)"/>
            <path id="路径_25297" data-name="路径 25297" class="cls-empty-3" d="M2478.029,1645.7l.469.408h-.469Z" transform="translate(-2478.091 -1632.876)"/>
          </g>
        </g>
      </g>
      <g id="矩形_4436-2" data-name="矩形 4436" class="cls-empty-55" transform="translate(115.751 23.998)">
        <g id="组_46087" data-name="组 46087" class="cls-empty-57" transform="translate(0 0)">
          <g id="组_46086" data-name="组 46086" class="cls-empty-58">
            <path id="路径_25299" data-name="路径 25299" class="cls-empty-3" d="M2399.358,1538.217l-.469-.408h.469Z" transform="translate(-2387.708 -1537.872)"/>
            <path id="路径_25300" data-name="路径 25300" class="cls-empty-3" d="M2398.22,1538.721l-1.048-.911h.579l.469.408Z" transform="translate(-2386.57 -1537.872)"/>
            <path id="路径_25301" data-name="路径 25301" class="cls-empty-3" d="M2397.082,1539.224l-1.628-1.415h.58l1.048.911Z" transform="translate(-2385.431 -1537.872)"/>
            <path id="路径_25302" data-name="路径 25302" class="cls-empty-3" d="M2395.945,1539.728l-2.207-1.918h.579l1.628,1.415Z" transform="translate(-2384.295 -1537.872)"/>
            <path id="路径_25303" data-name="路径 25303" class="cls-empty-3" d="M2395.045,1540.231l-2.666-2.317.091-.105h.367l2.207,1.918Z" transform="translate(-2383.395 -1537.872)"/>
            <path id="路径_25304" data-name="路径 25304" class="cls-empty-3" d="M2394.554,1540.8l-.071.082-2.844-2.472.25-.287,2.665,2.317Z" transform="translate(-2382.904 -1538.078)"/>
            <rect id="矩形_24544" data-name="矩形 24544" class="cls-empty-3" width="0.38" height="3.768" transform="translate(8.486 0.616) rotate(-49)"/>
            <rect id="矩形_24545" data-name="矩形 24545" class="cls-empty-3" width="0.38" height="3.768" transform="translate(8.236 0.903) rotate(-49)"/>
            <rect id="矩形_24546" data-name="矩形 24546" class="cls-empty-3" width="0.38" height="3.768" transform="translate(7.987 1.19) rotate(-49)"/>
            <rect id="矩形_24547" data-name="矩形 24547" class="cls-empty-3" width="0.38" height="3.768" transform="translate(7.738 1.476) rotate(-49)"/>
            <rect id="矩形_24548" data-name="矩形 24548" class="cls-empty-3" width="0.38" height="3.768" transform="translate(7.488 1.763) rotate(-49)"/>
            <rect id="矩形_24549" data-name="矩形 24549" class="cls-empty-3" width="0.38" height="3.768" transform="translate(7.239 2.05) rotate(-49)"/>
            <rect id="矩形_24550" data-name="矩形 24550" class="cls-empty-3" width="0.38" height="3.768" transform="translate(6.99 2.337) rotate(-49)"/>
            <rect id="矩形_24551" data-name="矩形 24551" class="cls-empty-3" width="0.38" height="3.768" transform="translate(6.74 2.624) rotate(-49)"/>
            <rect id="矩形_24552" data-name="矩形 24552" class="cls-empty-3" width="0.38" height="3.768" transform="translate(6.491 2.911) rotate(-49)"/>
            <rect id="矩形_24553" data-name="矩形 24553" class="cls-empty-3" width="0.38" height="3.768" transform="translate(6.242 3.197) rotate(-49)"/>
            <rect id="矩形_24554" data-name="矩形 24554" class="cls-empty-3" width="0.38" height="3.768" transform="translate(5.992 3.484) rotate(-49)"/>
            <rect id="矩形_24555" data-name="矩形 24555" class="cls-empty-3" width="0.38" height="3.768" transform="translate(5.743 3.771) rotate(-49)"/>
            <rect id="矩形_24556" data-name="矩形 24556" class="cls-empty-3" width="0.38" height="3.768" transform="translate(5.494 4.058) rotate(-49)"/>
            <rect id="矩形_24557" data-name="矩形 24557" class="cls-empty-3" width="0.38" height="3.768" transform="translate(5.244 4.345) rotate(-49)"/>
            <rect id="矩形_24558" data-name="矩形 24558" class="cls-empty-3" width="0.38" height="3.768" transform="translate(4.995 4.631) rotate(-49)"/>
            <rect id="矩形_24559" data-name="矩形 24559" class="cls-empty-3" width="0.38" height="3.768" transform="translate(4.746 4.918) rotate(-49)"/>
            <rect id="矩形_24560" data-name="矩形 24560" class="cls-empty-3" width="0.38" height="3.768" transform="translate(4.496 5.205) rotate(-49)"/>
            <rect id="矩形_24561" data-name="矩形 24561" class="cls-empty-3" width="0.38" height="3.768" transform="translate(4.247 5.492) rotate(-49)"/>
            <rect id="矩形_24562" data-name="矩形 24562" class="cls-empty-3" width="0.38" height="3.768" transform="translate(3.998 5.779) rotate(-49)"/>
            <rect id="矩形_24563" data-name="矩形 24563" class="cls-empty-3" width="0.38" height="3.768" transform="translate(3.749 6.066) rotate(-49)"/>
            <rect id="矩形_24564" data-name="矩形 24564" class="cls-empty-3" width="0.38" height="3.768" transform="translate(3.499 6.352) rotate(-49)"/>
            <rect id="矩形_24565" data-name="矩形 24565" class="cls-empty-3" width="0.38" height="3.768" transform="translate(3.25 6.639) rotate(-49)"/>
            <rect id="矩形_24566" data-name="矩形 24566" class="cls-empty-3" width="0.38" height="3.768" transform="translate(3.001 6.926) rotate(-49)"/>
            <rect id="矩形_24567" data-name="矩形 24567" class="cls-empty-3" width="0.38" height="3.768" transform="translate(2.751 7.213) rotate(-49)"/>
            <rect id="矩形_24568" data-name="矩形 24568" class="cls-empty-3" width="0.38" height="3.768" transform="translate(2.502 7.5) rotate(-49)"/>
            <rect id="矩形_24569" data-name="矩形 24569" class="cls-empty-3" width="0.38" height="3.768" transform="translate(2.253 7.786) rotate(-49)"/>
            <rect id="矩形_24570" data-name="矩形 24570" class="cls-empty-3" width="0.38" height="3.768" transform="translate(2.003 8.073) rotate(-49)"/>
            <rect id="矩形_24571" data-name="矩形 24571" class="cls-empty-3" width="0.38" height="3.768" transform="translate(1.754 8.36) rotate(-49)"/>
            <rect id="矩形_24572" data-name="矩形 24572" class="cls-empty-3" width="0.38" height="3.768" transform="translate(1.504 8.647) rotate(-49)"/>
            <rect id="矩形_24573" data-name="矩形 24573" class="cls-empty-3" width="0.38" height="3.768" transform="translate(1.255 8.934) rotate(-49)"/>
            <rect id="矩形_24574" data-name="矩形 24574" class="cls-empty-3" width="0.38" height="3.768" transform="translate(1.006 9.221) rotate(-49)"/>
            <rect id="矩形_24575" data-name="矩形 24575" class="cls-empty-3" width="0.38" height="3.768" transform="translate(0.757 9.507) rotate(-49)"/>
            <rect id="矩形_24576" data-name="矩形 24576" class="cls-empty-3" width="0.38" height="3.768" transform="translate(0.507 9.794) rotate(-49)"/>
            <rect id="矩形_24577" data-name="矩形 24577" class="cls-empty-3" width="0.38" height="3.768" transform="translate(0.258 10.081) rotate(-49)"/>
            <rect id="矩形_24578" data-name="矩形 24578" class="cls-empty-3" width="0.38" height="3.768" transform="translate(0.009 10.368) rotate(-49)"/>
            <path id="路径_25305" data-name="路径 25305" class="cls-empty-3" d="M2368.479,1571.2l-.249.287-2.666-2.317v-.36l.071-.082Z" transform="translate(-2365.626 -1558.356)"/>
            <path id="路径_25306" data-name="路径 25306" class="cls-empty-3" d="M2368.23,1572.35l-.092.1h-.367l-2.207-1.918v-.5Z" transform="translate(-2365.626 -1559.224)"/>
            <path id="路径_25307" data-name="路径 25307" class="cls-empty-3" d="M2367.192,1573.444l-1.628-1.415v-.5l2.207,1.919Z" transform="translate(-2365.626 -1560.213)"/>
            <path id="路径_25308" data-name="路径 25308" class="cls-empty-3" d="M2366.613,1574.434l-1.049-.911v-.5l1.628,1.415Z" transform="translate(-2365.626 -1561.202)"/>
            <path id="路径_25309" data-name="路径 25309" class="cls-empty-3" d="M2366.033,1575.422l-.469-.408v-.5l1.049.911Z" transform="translate(-2365.626 -1562.191)"/>
            <path id="路径_25310" data-name="路径 25310" class="cls-empty-3" d="M2365.564,1576l.469.408h-.469Z" transform="translate(-2365.626 -1563.18)"/>
          </g>
        </g>
      </g>
      <g id="组_46094" data-name="组 46094" transform="translate(64.816 40.571)">
        <g id="组_46088" data-name="组 46088" transform="translate(38.384 6.773)">
          <path id="路径_25312" data-name="路径 25312" class="cls-empty-59" d="M0,13.87V58.7L33.223,44.512,35.158,0Z" transform="translate(0.309 0.309)"/>
          <path id="路径_25313" data-name="路径 25313" class="cls-empty-60" d="M.309,59.321A.308.308,0,0,1,0,59.013V14.178a.31.31,0,0,1,.2-.288L35.354.021a.309.309,0,0,1,.421.3L33.84,44.834a.31.31,0,0,1-.188.271L.429,59.3A.3.3,0,0,1,.309,59.321ZM.617,14.388V58.545L33.231,44.614,35.138.77Z" transform="translate(0 0)"/>
        </g>
        <g id="组_46089" data-name="组 46089" transform="translate(0 10.644)">
          <path id="路径_25314" data-name="路径 25314" class="cls-empty-61" d="M0,0,38.384,10V54.834L2.258,40.641Z" transform="translate(0.309 0.308)"/>
          <path id="路径_25315" data-name="路径 25315" class="cls-empty-60" d="M38.692,55.45a.3.3,0,0,1-.112-.022L2.454,41.237a.307.307,0,0,1-.2-.27L0,.325A.308.308,0,0,1,.386.01l38.384,10a.309.309,0,0,1,.231.3V55.142a.308.308,0,0,1-.309.309ZM2.864,40.735,38.384,54.69V10.546L.64.713Z" transform="translate(0 0)"/>
        </g>
        <g id="组_46090" data-name="组 46090" transform="translate(0 0.323)">
          <path id="路径_25316" data-name="路径 25316" class="cls-empty-62" d="M73.542,6.451,35.481,0,0,10.322l38.384,10Z" transform="translate(0.309 0.308)"/>
          <path id="路径_25317" data-name="路径 25317" class="cls-empty-60" d="M38.692,20.938a.335.335,0,0,1-.078-.01l-38.384-10a.308.308,0,0,1-.008-.595L35.7.012A.317.317,0,0,1,35.841,0L73.9,6.455a.309.309,0,0,1,.062.591L38.806,20.916A.312.312,0,0,1,38.692,20.938ZM1.47,10.614l37.2,9.692L72.707,6.879,35.808.624Z" transform="translate(0 0)"/>
        </g>
        <g id="组_46091" data-name="组 46091" transform="translate(0 0)">
          <path id="路径_25318" data-name="路径 25318" class="cls-empty-59" d="M0,10.644l18.708.645L51.931,0,35.481.323Z" transform="translate(0.309 0.309)"/>
          <path id="路径_25319" data-name="路径 25319" class="cls-empty-60" d="M19.017,11.906h-.01L.3,11.261a.308.308,0,0,1-.075-.6L35.7.335a.322.322,0,0,1,.08-.012L52.233,0a.287.287,0,0,1,.31.255.308.308,0,0,1-.2.346L19.116,11.89A.319.319,0,0,1,19.017,11.906Zm-16.772-1.2,16.726.576L50.258.656,35.836.939Z" transform="translate(0)"/>
        </g>
        <g id="组_46092" data-name="组 46092" transform="translate(18.386 2.258)">
          <path id="路径_25320" data-name="路径 25320" class="cls-empty-61" d="M0,11.612l20,6.774L55.156,4.516,34.513,0Z" transform="translate(0.309 0.309)"/>
          <path id="路径_25321" data-name="路径 25321" class="cls-empty-60" d="M20.307,19a.3.3,0,0,1-.1-.017l-20-6.773a.308.308,0,0,1,0-.584L34.723.016a.311.311,0,0,1,.165-.009L55.531,4.523a.309.309,0,0,1,.048.589L20.42,18.981A.312.312,0,0,1,20.307,19ZM1.273,11.921,20.3,18.366,54.409,4.909,34.839.628Z" transform="translate(0 0)"/>
        </g>
        <g id="组_46093" data-name="组 46093" transform="translate(6.938 43.484)">
          <path id="路径_25322" data-name="路径 25322" class="cls-empty-63" d="M5.914,9.061,4.2,8.408l0-.577a1.95,1.95,0,0,1-1.737-.015A3.961,3.961,0,0,1,.731,6.6a2.867,2.867,0,0,1-.5-.96,4.442,4.442,0,0,1-.2-.923C.014,4.474,0,4.147,0,3.738s0-.729.022-.962a2.623,2.623,0,0,1,.191-.768A1.031,1.031,0,0,1,.7,1.429a2.15,2.15,0,0,1,1.71.1A3.754,3.754,0,0,1,4.128,2.794L4.112,0,5.865.668Zm-2-2.515a2.349,2.349,0,0,0,.228-1.23,3.539,3.539,0,0,0-.244-1.4,1.616,1.616,0,0,0-.968-.81q-.728-.278-.955.077a2.38,2.38,0,0,0-.222,1.227,5.6,5.6,0,0,0,.044.723,2.784,2.784,0,0,0,.159.6,1.348,1.348,0,0,0,.367.528,1.991,1.991,0,0,0,.628.369Q3.68,6.9,3.914,6.546Z" transform="translate(0 0)"/>
          <path id="路径_25323" data-name="路径 25323" class="cls-empty-63" d="M5.825,7.735,4.112,7.082l0-.531a1.559,1.559,0,0,1-.746.168,3.143,3.143,0,0,1-.977-.237,4.114,4.114,0,0,1-1.8-1.226A2.59,2.59,0,0,1,0,3.656,1.021,1.021,0,0,1,.606,2.611a2.468,2.468,0,0,1,1.785.18l1.659.633,0-.307a1.245,1.245,0,0,0-.315-.855,2.542,2.542,0,0,0-1-.61,2.3,2.3,0,0,0-.781-.186,1.1,1.1,0,0,0-.565.179L.263.263A1.831,1.831,0,0,1,1.324,0,5.207,5.207,0,0,1,2.794.381q3,1.141,3.008,3.31ZM4.058,4.8l0-.33-1.39-.529a1.143,1.143,0,0,0-.727-.094.382.382,0,0,0-.254.415q0,.707,1.016,1.093a1.537,1.537,0,0,0,1.1.127Q4.061,5.369,4.058,4.8Z" transform="translate(7.374 4.103)"/>
          <path id="路径_25324" data-name="路径 25324" class="cls-empty-63" d="M3.772,8.921l-.958-.365a3.253,3.253,0,0,1-1.521-1.1A2.447,2.447,0,0,1,.767,6.024L.749,2.982.007,2.7,0,1.532l.742.283L.732,0,2.486.668,2.5,2.483l1.241.473.007,1.168L2.5,3.65,2.52,6.6a.817.817,0,0,0,.61.786l.634.241Z" transform="translate(14.472 4.839)"/>
          <path id="路径_25325" data-name="路径 25325" class="cls-empty-63" d="M5.825,7.734,4.112,7.082l0-.53a1.559,1.559,0,0,1-.746.168,3.142,3.142,0,0,1-.977-.237,4.114,4.114,0,0,1-1.8-1.226A2.586,2.586,0,0,1,0,3.657,1.022,1.022,0,0,1,.606,2.611a2.472,2.472,0,0,1,1.785.18l1.659.633,0-.307a1.245,1.245,0,0,0-.315-.855,2.544,2.544,0,0,0-1-.61,2.288,2.288,0,0,0-.783-.186,1.1,1.1,0,0,0-.564.179L.263.263A1.841,1.841,0,0,1,1.324,0a5.244,5.244,0,0,1,1.47.378Q5.789,1.522,5.8,3.691ZM4.058,4.8l0-.33-1.39-.529a1.144,1.144,0,0,0-.727-.1.382.382,0,0,0-.254.415q0,.707,1.016,1.093a1.536,1.536,0,0,0,1.1.127C3.976,5.407,4.061,5.18,4.058,4.8Z" transform="translate(19.286 8.642)"/>
        </g>
        <path id="路径_25326" data-name="路径 25326" class="cls-empty-3" d="M0,0,.215,8.7,2.15,7.735,3.763,9.67,6.021,8.7l1.91,2.491,2.444-1.116,1.775,2.5,2.258-1.29,2.258,2.58V4.341Z" transform="translate(10.254 13.862)"/>
        <path id="路径_25327" data-name="路径 25327" class="cls-empty-3" d="M0,10.36,30.707.166,39.17,0,7.883,10.631Z" transform="translate(11.088 0.656)"/>
        <path id="路径_25328" data-name="路径 25328" class="cls-empty-3" d="M0,11.293l7.676,2.6L39.388,1.274,33.566,0Z" transform="translate(19.659 2.886)"/>
      </g>
      <g id="蒙版组_2600" data-name="蒙版组 2600" class="cls-empty-64" transform="translate(0 0)">
        <g id="组_46099" data-name="组 46099" transform="translate(17.139 103.301)">
          <g id="联合_10" data-name="联合 10" transform="translate(0 4.317)">
            <g id="组_46095" data-name="组 46095">
              <path id="路径_25329" data-name="路径 25329" class="cls-empty-2" d="M2122.81,1741.932a30.842,30.842,0,0,1-47.415-26h0a30.835,30.835,0,0,1,30.835-30.835h0a30.817,30.817,0,0,1,26.575,15.187,23.453,23.453,0,0,1,27.694,23.048h0a23.434,23.434,0,0,1-23.435,23.435h0A23.332,23.332,0,0,1,2122.81,1741.932Z" transform="translate(-2075.395 -1685.094)"/>
            </g>
            <g id="组_46096" data-name="组 46096" class="cls-empty-65">
              <path id="路径_25330" data-name="路径 25330" class="cls-empty-60" d="M2137.065,1746.765h-1.331l-.052,0h-.149l-.084-.005h-.132l-.113-.008h-.016l-.012,0h-.059l-.144-.012h0l-.029,0h-.028q-.775-.071-1.535-.191l.1-.609a23.111,23.111,0,0,0,3.59.281v.617Zm-7.28-1.153-.01,0h0l-.013,0h0l-.013,0h0l-.169-.056h0l-.013,0h0l-.013,0h0l-.012,0h0l-.012,0h0l-.011,0h0l-.011,0h0l-.011,0h0l-.011,0h0l-.01,0h0l-.011,0h0l-.011,0,0,0-.01,0h0l-.01,0,0,0-.01,0h0l-.01,0h0l-.01,0h0l-.01,0,0,0-.01,0h0l-.011,0,0,0-.01,0h0l-.01,0h0l-.01,0h0l-.01,0h0l-.011,0h0l-.011,0h0l-.011,0h0l-.011,0h0l-.012,0h0l-.012,0h0l-.013,0h0l-.154-.056h0l-.014-.005h0l-.013,0h0l-.012,0h0l-.011,0h0l-.011,0h0l-.01,0h0l-.011,0h0l-.01,0,0,0-.01,0h0l-.01,0h0l-.01,0,0,0-.009,0,0,0-.009,0h0l-.009,0h0l-.01,0,0,0-.01,0,0,0-.009,0,0,0-.009,0,0,0-.009,0,0,0-.009,0,0,0-.009,0,0,0-.009,0h0l-.009,0-.005,0-.009,0,0,0-.01,0,0,0-.009,0,0,0-.008,0,0,0-.009,0,0,0-.009,0-.005,0-.01,0h0l-.01,0,0,0-.01,0,0,0-.01,0,0,0-.01,0h0l-.01,0h0l-.012,0h0l-.013-.005h0l-.028-.011h0l-.013-.005h0l-.011,0,0,0-.009,0,0,0-.009,0-.005,0-.008,0-.006,0-.008,0-.007,0-.008,0-.005,0-.008,0-.006,0-.008,0-.006,0-.007,0-.006,0-.008,0-.006,0-.007,0-.007,0-.007,0-.007,0-.007,0-.006,0-.007,0-.007,0-.007,0-.007,0-.006,0-.007,0-.007,0-.006,0-.007,0-.008,0-.006,0-.007,0-.006,0-.007,0-.007,0-.007,0-.007,0-.007,0-.006,0-.007,0-.006,0-.007,0-.006,0-.008,0-.005,0-.008,0-.005,0-.008,0,0,0-.009,0-.005,0-.008,0-.005,0-.008,0,0,0-.009,0-.005,0-.009,0h0l-.01,0h0l-.01,0h0l-.01,0h0l-.011-.005h0l-.171-.073h0l-.013-.006h0l-.012-.006h0l-.012,0h0l-.011,0h0l-.012-.005h0l-.011-.005h0l-.012,0h0l-.012-.005h0l-.012-.005h0l-.011,0h0l-.012-.005h0l-.012-.005h0l-.011-.005h0l-.011-.005h0l-.011-.005h0l-.012-.005h0l-.012-.005h0l-.012-.005h0l-.012-.005h0l-.013-.006h0l-.012-.005h0q-.571-.257-1.128-.542l.281-.549a22.766,22.766,0,0,0,3.322,1.385Zm-9.735-2.11-.277-.551a30.388,30.388,0,0,0,2.7-1.538l.364-.233.343.263c.135.1.273.206.409.306l-.365.5-.139-.1h0l-.01-.007,0,0-.009-.007,0,0-.008-.006-.005,0-.007,0-.008-.006,0,0-.026-.019h0l-.013-.01h0l-.012-.009h0l-.143-.108h0l-.012-.01h0l-.012-.01h0l-.013.008,0,0-.01.007,0,0-.026.016,0,0-.011.008h0l-.027.017h0l-.012.008h0l-.027.017h0l-.041.026h0l-.042.026h0l-.042.026h0Q2121.333,1742.857,2120.051,1743.5ZM2113.1,1746l-.137-.6a30.088,30.088,0,0,0,3.478-1.016l.209.58h0l-.05.017h0l-.01,0-.005,0-.01,0,0,0-.009,0,0,0-.035.012h0l-.01,0,0,0-.009,0-.006,0-.008,0h-.006l-.009,0-.005,0-.019.007h0l-.009,0-.006,0-.008,0-.006,0-.009,0-.007,0-.008,0-.007,0-.008,0-.008,0-.012,0-.008,0-.007,0-.008,0-.007,0-.007,0-.008,0-.007,0-.008,0-.009,0-.007,0-.013,0-.006,0-.01,0-.007,0-.009,0-.006,0-.008,0-.007,0-.009,0-.006,0-.01,0h-.005l-.014.005,0,0-.01,0-.007,0-.009,0-.006,0-.01,0-.005,0-.009,0-.006,0-.013,0h-.005l-.011,0-.006,0-.009,0-.006,0-.009,0-.006,0-.01,0-.005,0-.012,0h0l-.016.005h0l-.011,0-.005,0-.01,0-.005,0-.01,0-.005,0-.01,0h0l-.015.005h0l-.016.005h0l-.011,0,0,0-.01,0-.006,0-.01,0h0l-.012,0h0l-.015,0h0l-.013,0h0l-.011,0h-.005l-.01,0h-.005l-.011,0h0l-.013,0h0l-.016,0h0l-.012,0,0,0-.01,0-.006,0-.009,0-.005,0-.011,0,0,0-.031.01h0l-.011,0,0,0-.011,0h0l-.011,0,0,0-.012,0h0l-.015.005h0l-.012,0h-.005l-.01,0h0l-.01,0-.005,0-.011,0h0l-.015,0h0l-.015.005h0l-.011,0h-.005l-.01,0h-.005l-.011,0,0,0-.012,0h0l-.031.009,0,0-.01,0-.005,0-.01,0-.006,0-.01,0,0,0-.012,0h0l-.015,0h0l-.011,0h-.006l-.01,0h-.006l-.01,0h-.006l-.01,0h-.005l-.013,0h0l-.015,0h-.005l-.01,0-.006,0-.01,0-.005,0-.01,0-.006,0-.01,0h0l-.015,0h0l-.01,0-.006,0-.009,0-.007,0-.009,0-.006,0-.009,0h-.006l-.01,0-.005,0-.015,0-.005,0-.01,0-.006,0-.01,0-.007,0-.008,0-.007,0-.009,0-.006,0-.015,0h0l-.013,0-.006,0-.009,0-.006,0-.009,0-.006,0-.009,0-.007,0-.01,0h-.006l-.014,0-.006,0-.009,0-.008,0-.007,0-.008,0-.007,0-.007,0-.008,0-.007,0-.01,0-.009,0-.011,0-.007,0-.009,0-.007,0-.008,0-.007,0-.009,0-.007,0-.008,0-.007,0-.01,0-.011,0-.008,0-.007,0-.008,0-.008,0-.008,0-.007,0-.008,0-.008,0-.008,0-.007,0-.014,0-.008,0-.008,0-.008,0h-.007l-.008,0-.007,0-.008,0-.007,0-.009,0-.007,0-.016,0-.006,0-.009,0-.007,0-.008,0-.008,0-.009,0-.006,0-.008,0-.006,0-.009,0-.006,0-.017,0-.006,0-.009,0-.007,0-.009,0-.006,0-.009,0-.007,0-.008,0-.006,0-.019.005h0l-.009,0-.007,0-.009,0-.006,0-.009,0-.006,0-.009,0-.007,0-.009,0h0l-.019,0h-.006l-.009,0-.006,0-.009,0h-.007l-.009,0h-.006l-.009,0h-.006l-.032.008-.006,0-.009,0-.007,0-.008,0-.007,0-.008,0-.007,0-.009,0h-.006l-.02.006h0l-.01,0h-.005l-.01,0-.005,0-.01,0,0,0-.01,0h-.006l-.01,0h0l-.02.005h-.005l-.009,0-.007,0-.009,0-.007,0-.009,0-.006,0-.009,0-.006,0-.019,0,0,0-.009,0-.007,0-.008,0-.007,0-.008,0-.007,0-.009,0-.006,0-.009,0-.005,0-.018,0-.006,0-.009,0-.006,0-.009,0-.007,0-.008,0-.007,0-.008,0h-.007l-.009,0-.008,0-.014,0-.008,0-.008,0-.007,0-.008,0-.008,0-.008,0-.008,0-.008,0-.008,0h-.008l-.014,0-.007,0-.009,0-.007,0-.009,0-.008,0-.008,0-.007,0-.009,0-.007,0-.01,0-.011,0-.009,0-.008,0-.008,0-.008,0-.008,0h-.007l-.009,0h-.007l-.01,0h-.005l-.015,0h-.005l-.01,0-.006,0-.01,0-.006,0-.01,0-.006,0-.01,0-.006,0-.013,0h0l-.016,0h0l-.01,0-.007,0-.01,0h-.006l-.009,0h-.006l-.011,0h0l-.016,0h0l-.015,0h-.012Zm-6.873.769h-.281l-.191,0,.009-.617c.153,0,.309,0,.463,0a30.736,30.736,0,0,0,3.159-.163l.064.613h0l-.022,0h-.015l-.032,0h-.019l-.018,0h-.034l-.015,0h-.239l-.015,0h-.036l-.016,0h-.02l-.016,0h-.036l-.016,0h-.055l-.033,0h-.019l-.017,0h0l-.016,0h0l-.034,0h-.019l-.034,0h0l-.034,0h0l-.051,0h0l-.034,0h0l-.051,0h0l-.034,0h0l-.052,0h0l-.035,0h0l-.052,0h0l-.035,0h0l-.052,0h0l-.035,0h0l-.052,0h0l-.035,0h0l-.176.01h0l-.141.008h-.036l-.087,0h0l-.053,0h0l-.035,0h0l-.052,0h-1.3Zm-4.16-.278h-.031l-.009,0h0l-.013,0h0l-.01,0h-.032l-.008,0h-.005l-.013,0h-.059l-.013,0h-.053l-.026,0h-.044l-.029,0h-.042l-.03,0h0l-.009,0h-.028l-.031,0h0l-.008,0h-.017l-.009,0h0l-.032-.005h0l-.01,0h-.014l-.046-.007h0l-.01,0h0l-.01,0h0l-.046-.007h0l-.01,0h-.014l-.047-.007h0l-.011,0h0l-.07-.012h0l-.07-.012h0l-.071-.012h0l-.071-.012h0l-.214-.037h0q-.278-.05-.555-.1h0l-.011,0h0l-.046-.009h0l-.011,0h0l-.011,0h0l-.045-.009h0l-.011,0h0l-.01,0h0l-.044-.009H2100l-.01,0h0l-.043-.009h0l-.009,0h0l-.009,0h0l-.031-.007h0l-.008,0h0l-.009,0h0l-.009,0h0l-.031-.006h0l-.009,0h0l-.009,0h0l-.008,0h0l-.028-.006h-.018l-.007,0h-.019l-.007,0h-.006l-.012,0-.007,0-.006,0-.007,0h-.006l-.007,0h-.019l-.013,0h0l-.008,0h-.006l-.008,0h-.006l-.007,0-.006,0h-.013l-.013,0h0l-.009,0-.006,0h-.013l-.008,0h0l-.011,0h0l-.013,0h0l-.012,0h0l-.01,0h0l-.01,0h0l-.012,0h0l-.014,0h0l-.012,0h0l-.01,0h0l-.01,0h0l-.026-.006h0l-.013,0h0l-.012,0h0l-.013,0h0l-.043-.009h0l-.013,0h0q-.4-.093-.794-.2l.155-.6a30.211,30.211,0,0,0,3.556.7Zm-7.144-1.86q-.451-.177-.893-.368h0l-.011,0h0l-.043-.018h0l-.009,0h0l-.04-.017h0l-.008,0h0l-.009,0,0,0-.026-.011,0,0-.008,0,0,0-.008,0-.006,0-.006,0-.007,0-.011,0-.007,0-.006,0-.005,0-.007,0-.007,0-.005,0-.008,0-.005,0-.01,0,0,0-.008,0-.005,0-.008,0,0,0-.011,0h0l-.013-.006h0l-.01,0,0,0-.009,0h0l-.01,0h0l-.012-.005h0l-.01,0h0l-.01,0h0l-.011-.005h0l-.026-.012h0l-.012-.005h0q-.924-.416-1.813-.89h0l-.012-.006h0l-.037-.02h0l-.011-.006h0l-.012-.006h0l-.024-.013h0l-.008-.005,0,0-.009-.005h0l-.011-.006h0l-.011-.006,0,0-.008,0,0,0-.007,0-.005,0-.006,0-.005,0,.294-.542a30.214,30.214,0,0,0,3.285,1.53Zm-6.494-3.514,0,0,0,0-.007,0-.005,0-.006,0-.01-.007,0,0-.006,0,0,0-.007-.005,0,0-.008-.006,0,0-.011-.007,0,0-.009-.006,0,0-.008-.005,0,0-.009-.007h0l-.022-.016,0,0-.009-.006h0l-.034-.024h0q-.9-.646-1.747-1.354h0l-.01-.009h0l-.033-.027h0l-.01-.008h0l-.022-.018h0l-.009-.008,0,0-.009-.007h0l-.021-.017,0,0-.008-.007,0,0-.007-.006,0,0-.009-.008h0l-.01-.008,0,0-.008-.006,0,0-.005-.005,0,0-.006-.005,0,0-.009-.008-.006,0,0,0,0,0-.005,0-.005,0,0,0-.02-.018,0,0-.006-.006,0,0-.007-.005,0,0-.023-.019,0,0-.006-.006,0,0-.007-.006h0l-.024-.021h0l-.007-.006,0,0-.007-.006h0l-.025-.021v0l-.008-.006h0l-.008-.007h0l-.033-.03h0c-.168-.146-.336-.3-.5-.445l.413-.457a30.356,30.356,0,0,0,2.828,2.267Zm-5.474-4.953q-.329-.379-.647-.768h0l-.008-.009h0l-.029-.035h0l-.007-.008v0l-.021-.025h0l-.006-.007,0,0-.005-.007,0,0-.005-.007h0l-.012-.016h0l0-.006,0,0,0-.006,0,0,0-.005,0,0-.007-.009,0-.006,0,0,0-.005,0-.005,0-.005,0-.005,0-.006,0-.005-.007-.008,0,0,0-.006,0,0,0-.006,0,0-.007-.008,0,0-.007-.009,0,0-.005-.007,0,0-.005-.007,0,0-.007-.009,0,0-.007-.01,0,0-.006-.008,0,0-.006-.008,0,0-.017-.022h0l-.008-.01v0l-.008-.01h0l-.018-.023h0l-.009-.011h0l-.035-.044h0l-.008-.011h0q-.645-.826-1.237-1.694l.511-.346a30.465,30.465,0,0,0,2.211,2.871Zm-4.147-6.108q-.521-1.01-.97-2.062h0c-.005-.013-.011-.026-.017-.04h0l-.005-.013h0c-.006-.013-.011-.026-.017-.04h0l0-.011v0a.076.076,0,0,1,0-.011h0l-.01-.026h0l0-.01,0,0,0-.01v0a.092.092,0,0,0-.005-.011h0l-.005-.013v0l0-.009,0,0a.067.067,0,0,1,0-.009l0,0,0-.009,0,0,0-.012,0,0a.021.021,0,0,1,0-.008l0-.005,0-.007,0-.005,0-.007,0-.006,0-.007,0-.009,0-.007,0-.006,0-.006,0-.006,0-.005,0-.007v0l-.007-.016v0l0-.007v0l0-.007,0,0,0-.008,0,0c0-.01-.008-.02-.011-.03h0l0-.009v0c-.118-.288-.23-.578-.339-.871l.578-.214a30.26,30.26,0,0,0,1.465,3.314Zm-2.571-6.92q-.293-1.225-.488-2.488h0l-.011-.072h0l0-.013h0c0-.014,0-.029-.007-.042h0v-.015l0-.012h0l0-.013h0a.269.269,0,0,1,0-.028v-.017l0-.011v0l0-.012v0a.219.219,0,0,0,0-.028v0l0-.011v0a.075.075,0,0,0,0-.01v0l0-.012v0c0-.009,0-.018,0-.027v0l0-.01v0a.068.068,0,0,0,0-.01v0a.041.041,0,0,1,0-.011v0l0-.027v0s0-.006,0-.01v0a.029.029,0,0,0,0-.009v0a.052.052,0,0,0,0-.009v0l0-.012h0l0-.013v0a.039.039,0,0,0,0-.01v-.018a.032.032,0,0,1,0-.01v0l0-.027v-.018a.058.058,0,0,1,0-.009v0a.039.039,0,0,1,0-.01v0l0-.013h0l0-.014v0l0-.01v-.032a.088.088,0,0,1,0-.011v-.021a.061.061,0,0,0,0-.009v-.005a.024.024,0,0,0,0-.008v-.005a.025.025,0,0,0,0-.008v-.006s0-.007,0-.01v0l0-.013v0a.031.031,0,0,1,0-.01v-.045a.061.061,0,0,1,0-.013v0s0-.006,0-.009v-.032l0-.011v-.048a.059.059,0,0,0,0-.009v0a.04.04,0,0,0,0-.012v-.019a.038.038,0,0,0,0-.009v-.077s0-.006,0-.009v-.018l0-.013h0v-.016l0-.011h0l.613-.071a30.2,30.2,0,0,0,.629,3.569Zm-.229-7.332-.617,0q0-.827.05-1.643h0a.115.115,0,0,1,0-.013v-.029h0c0-.009,0-.019,0-.028v0a.092.092,0,0,1,0-.011v-.017s0-.007,0-.01v-.063a.034.034,0,0,1,0-.008v-.005s0-.006,0-.009v0a.033.033,0,0,1,0-.009.059.059,0,0,1,0-.009.052.052,0,0,1,0-.009v-.027a.029.029,0,0,0,0-.007v-.032c0-.006,0-.01,0-.017v-.016a.055.055,0,0,0,0-.009v-.017a.031.031,0,0,0,0-.009v0l0-.034h0a.071.071,0,0,1,0-.01v0a.048.048,0,0,0,0-.01v0a.041.041,0,0,1,0-.011h0c0-.021,0-.04,0-.06h0v-.012h0q.056-.773.151-1.536l.612.076A30.577,30.577,0,0,0,2076.012,1715.8Zm.89-7.181-.6-.149q.335-1.35.787-2.65h0c.005-.014.01-.027.014-.041h0l0-.011v0l0-.01v0l0-.013h0l0-.013v0l0-.009,0,0,0-.008,0-.005,0-.008,0,0,0-.011,0-.006,0-.007,0-.007,0,0,0-.007v0l0-.008v0c0-.01.007-.021.01-.031h0a.047.047,0,0,0,0-.01h0c.077-.215.155-.427.236-.64l.577.22A30.121,30.121,0,0,0,2076.9,1708.618Zm2.579-6.759-.545-.287q.2-.388.418-.769h0l.029-.05h0l.005-.01h0l.017-.029v0l.005-.008v0a.06.06,0,0,1,0-.008v0l.015-.027,0,0,0-.008,0,0,0-.008v0l.014-.025,0,0,0-.006,0-.005,0-.006,0-.005,0-.006,0-.008,0-.008,0-.006,0-.006,0-.006,0-.005,0-.007,0-.005.005-.009,0-.006,0-.006,0-.005,0-.007,0,0,0-.007,0,0,.006-.009,0,0,.005-.009,0,0,0-.008,0,0,0-.008,0,0,.014-.023v0l0-.008,0,0,.005-.009,0,0,.013-.023v0l.005-.009,0,0,.005-.009v0l.014-.024v0l.006-.01v0l.006-.01h0l.021-.036,0,0,.006-.011h0l.022-.037h0a.044.044,0,0,0,.007-.011h0l.022-.037h0l.007-.012h0q.527-.881,1.109-1.723l.507.351A30.233,30.233,0,0,0,2079.48,1701.859Zm4.115-5.951-.462-.408q.225-.255.456-.5h0l.01-.01h0l.029-.031h0l.039-.042h0l.01-.01h0l.02-.021h0l.008-.009h0l.009-.01h0l.019-.02h0l.008-.009v0l.009-.009v0l.02-.02h0l.009-.01h0l.008-.009h0l.019-.021h0l.009-.009,0,0,.008-.009h0l.02-.02h0l.01-.009h0l.009-.009h0a.258.258,0,0,1,.02-.021h0l.009-.009h0l.009-.009h0l.019-.02h0l.009-.009h0l.009-.009h0l.02-.021h0l.009-.009h0l.008-.009h0l.02-.02h0l.01-.009h0l.009-.009h0l.02-.02v0l.008-.009,0,0,.008-.009v0l.019-.02h0l.008-.009h0l.009-.009h0l.02-.02h0l.01-.01h0l.01-.01h0l.021-.02h0l.01-.01h0l.03-.03h0l.009-.01h0l.01-.01h0l.02-.02h0l.009-.009h0l.01-.01h0l.021-.02h0l.01-.01h0l.01-.009h0l.02-.02h0l.009-.01h0c.009-.01.02-.02.03-.03h0l.009-.01h0l.01-.01h0l.072-.071h0l.041-.041h0l.071-.071h0l.01-.01h0l.041-.04h0l.041-.041h0l.042-.04h0l.01-.01h0l.021-.02h0l.01-.01h0l.031-.03h0l.009-.01h0l.042-.04h0l.031-.03h0l.01-.009h0l.01-.01h0l.021-.02h0l.01-.01h0l.041-.04h0l.031-.03h0l.01-.009h0l.031-.029h0l.009-.009h0l.01-.009h0l.021-.019h0l.009-.009h0l.009-.009h0l.02-.019h0l.009-.008v0l.009-.009h0l.021-.019v0l.008-.008h0l.009-.009h0l.021-.019v0l.009-.008v0l.009-.008h0l.02-.019,0,0,.008-.007,0,0,.009-.007v0l.02-.019,0,0,.007-.007,0,0,.007-.007,0,0,.01-.009h0l.009-.008,0,0,.007-.006,0,0,.007-.006,0,0,.01-.008,0,0,.007-.006,0,0,.005,0,0,0,0,0,.005,0,.005-.005.008-.007,0,0,.005-.005.005,0,0,0,0,0,.005,0,0,0,.011-.01,0,0,.006-.005,0,0,.006-.005,0,0,.021-.019,0,0,.006-.006,0,0,.007-.006,0,0,.024-.021h0l.008-.007h0l.008-.007h0l.033-.03h0l.144-.129.41.461A30.371,30.371,0,0,0,2083.595,1695.908ZM2089,1691.1l-.353-.507q.465-.322.941-.629h0l.038-.024h0l.009-.005h0l.009-.005h0l.028-.018h0l.009,0,0,0,.008-.005h0l.028-.018h0l.008-.005,0,0,.007,0,0,0,.026-.016h0l.008-.005,0,0,.008,0,0,0,.026-.016,0,0,.007,0,0,0,.007,0,0,0,.007,0,0,0,.01-.007.005,0,.007,0,.005,0,.005,0,.006,0,.006,0,.006,0,.008,0,.007,0,.006,0,.006,0,0,0,.006,0,0,0,.009-.005,0,0,.009-.005,0,0,.006,0,.006,0,.006,0,.006,0,.007,0,.006,0,.009-.005,0,0,.006,0,0,0,.007,0,0,0,.008-.005,0,0,.01-.007,0,0,.007-.005,0,0,.007,0,0,0,.009-.005,0,0,.011-.007,0,0,.009,0,0,0,.008,0,0,0,.009-.006h0l.012-.007,0,0,.009-.005,0,0,.008,0,0,0,.009-.006h0l.011-.007h0l.011-.006,0,0,.009-.006,0,0,.011-.006h0l.012-.007h0l.011-.007h0l.01-.005,0,0,.011-.006h0l.024-.014h0l.01-.006h0l.012-.007h0l.023-.015h0l.01-.006,0,0,.011-.006h0l.024-.014h0l.01-.006h0l.011-.006h0l.036-.022h0l.012-.007h0l.037-.022h0l.048-.029h0q.6-.352,1.212-.678l.289.545A30.359,30.359,0,0,0,2089,1691.1Zm6.392-3.388-.221-.576q.415-.159.836-.308h0l.011,0h0l.012,0h0l.025-.009h0l.01,0,0,0,.009,0h0l.01,0h0l.012,0h0l.009,0,0,0,.008,0,.005,0,.007,0,0,0,.012,0,.006,0,.007,0,.006,0,.006,0,.007,0,.006,0,.007,0,0,0,.019-.006h0l.008,0,0,0,.009,0h0l.009,0h0l.031-.01h0l.01,0h0l.009,0h0l.009,0h0l.042-.014h0c.269-.09.538-.177.81-.26h0l.011,0h0l.044-.013h0l.01,0h0l.042-.013h0l.01,0h0l.009,0h0l.031-.009h0l.009,0h0l.008,0,.005,0,.007,0,.006,0,.008,0,.011,0,.005,0,.007,0,.006,0,.007,0,.006,0,.007,0,.005,0,.01,0h.005l.01,0,0,0,.009,0h0l.009,0h0l.01,0h0l.012,0h0l.011,0h0l.009,0h0l.01,0h0l.027-.008h0l.013,0h0l.012,0h0l.042-.012h0l.013,0h0q.5-.142,1-.268l.15.6A30.141,30.141,0,0,0,2095.394,1687.711Zm7.016-1.762-.077-.612q1.367-.172,2.77-.223h.016l.057,0h.443l.4-.005,0,.617A30.536,30.536,0,0,0,2102.411,1685.95Zm10.808.573a30.218,30.218,0,0,0-3.57-.621l.068-.613c.143.016.286.033.428.051h0l.112.015h0l.014,0h0l.014,0h0l.013,0h0l.014,0h0l.063.009h0l.013,0h0l.012,0h0l.011,0h0l.012,0h0l.012,0h0l.014,0h0l.032,0h.019l.012,0h0l.011,0h0l.011,0h0l.011,0h0l.011,0h0l.011,0h0l.031,0h0l.013,0h.036l.01,0h.036l.011,0h0l.011,0h0l.015,0h0l.011,0h.052l.009,0h.052l.012,0h.141l.011,0,.009,0h.03l.008,0h.007l.008,0h.065l.02,0h.035l.009,0h.006l.009,0h.021l.008,0h.021l.009,0h0l.023,0h0l.01,0h.005l.009,0h.021l.01,0h.006l.009,0h.05l.033.006h.036l.009,0h.021l.009,0h.006l.01,0h.02l.034.006h0l.009,0h.021l.009,0h.007l.008,0h.051l.033.006h.005l.009,0h.006l.009,0h.006l.009,0h.006l.009,0h.006l.009,0h.021l.009,0h0l.034.006h.013l.006,0h.009l.007,0h.008l.007,0,.007,0h.007l.008,0h.008l.008,0h.007l.008,0,.007,0h.013l.018,0h.014l.008,0,.007,0h.022l.008,0h.015l.007,0h.007l.008,0h.007l.009,0h.006l.01,0h.009l.011,0h.006l.008,0h.015l.007,0,.008,0,.007,0h.015l.008,0h.007l.008,0h.007l.009,0h.006l.012,0h0l.015,0h.006l.009,0h.007l.008,0h.015l.007,0,.009,0h.006l.009,0h.007l.009,0,.006,0,.01,0h0l.012,0h0l.015,0h0l.011,0h.005l.01,0h.005l.009,0h.006l.009,0h.006l.009,0h.006l.01,0h.005l.01,0h0l.012,0h0l.014,0h0l.011,0h0l.01,0h0l.01,0h.006l.01,0h.005l.01,0h.006l.009,0h.006l.01,0h.005l.012,0h0l.016,0h0l.015,0h0l.013,0h0l.011,0h0l.011,0h0l.01,0h0l.011,0h0l.011,0h0l.013,0h0l.031.007h0l.012,0h0l.012,0h0l.011,0h0l.01,0h0l.01,0h0l.011,0h0l.015,0h0l.031.007h0l.014,0h0l.012,0h0l.012,0h0l.011,0h0l.012,0h0l.012,0h0l.014,0h0l.046.011h0l.012,0h0l.012,0h0l.011,0h0l.012,0h0l.013,0h0l.014,0h0Zm6.787,2.5a30.159,30.159,0,0,0-3.318-1.457l.213-.579q.3.111.6.227h0l.013,0h0l.013.005h0l.012.005h0l.012.005h0l.093.037h0l.011,0h0l.011,0,0,0,.01,0h0l.01,0h0l.01,0h0l.011,0h0l.012,0h0l.012,0h0l.064.026h0l.011,0,0,0,.01,0h0l.01,0,0,0,.009,0,.005,0,.009,0,0,0,.009,0,.005,0,.009,0,0,0,.01,0h0l.01,0h0l.011,0h0l.039.016h0l.01,0,0,0,.009,0,0,0,.009,0,0,0,.009,0,.005,0,.009,0,0,0,.009,0,0,0,.009,0,.005,0,.009,0,0,0,.01,0,0,0,.009,0,0,0,.01,0h0l.038.016h0l.01,0,0,0,.009,0,0,0,.008,0,.005,0,.009,0,0,0,.009,0,.005,0,.009,0,0,0,.009,0,0,0,.01,0,0,0,.01,0,0,0,.01,0,0,0,.049.021h0l.009,0,0,0,.009,0,.005,0,.008,0,.006,0,.008,0,.006,0,.009,0,.005,0,.008,0,.005,0,.009,0,.005,0,.009,0,.005,0,.008,0,0,0,.009,0,0,0,.045.02h0l.009,0,.005,0,.009,0,.005,0,.008,0,.006,0,.008,0,.005,0,.008,0,.006,0,.008,0,.005,0,.008,0,.005,0,.009,0,0,0,.01,0h0l.01,0h0l.035.016h0l.01,0,0,0,.009,0,0,0,.009,0,0,0,.009,0,.006,0,.009,0,0,0,.008,0,.006,0,.008,0,0,0,.009,0,0,0,.009,0,0,0,.01,0h0l.011,0h0l.038.018h0l.01,0,0,0,.009,0,.005,0,.008,0,.005,0,.008,0,.006,0,.008,0,.005,0,.009,0,.006,0,.008,0,0,0,.009,0,.005,0,.008,0,.005,0,.008,0,.006,0,.009,0h0l.036.016h0l.01,0h0l.01,0,0,0,.009,0,.005,0,.008,0,.006,0,.008,0,.005,0,.008,0,.005,0,.008,0,.005,0,.008,0,0,0,.009,0,0,0,.009,0,0,0,.01,0,0,0,.018.008,0,0,.009,0,.006,0,.008,0,.005,0,.008,0,.006,0,.008,0,.007,0,.007,0,.006,0,.007,0,.006,0,.007,0,.007,0,.007,0,.006,0,.007,0,.007,0,.008,0,.007,0,.006,0,.008,0,.006,0,.027.013,0,0,.01,0,0,0,.01,0,0,0,.008,0,.006,0,.008,0,.005,0,.009,0,.006,0,.008,0,.005,0,.008,0,.005,0,.008,0,.005,0,.01,0,0,0,.01.005h0l.013.006h0l.029.014h0l.013.006h0l.011.006h0l.011.005h0l.01.005h0l.01.005h0l.011.005h0l.011.005h0l.012.006h0l.013.006h0c.177.087.354.175.53.266Zm6,4.05a30.5,30.5,0,0,0-2.877-2.2l.345-.511q.559.378,1.1.778h0l.011.009h0l.011.008h0l.01.007,0,0,.009.007,0,0,.007.005.006,0,.007.005,0,0,.007,0,.005,0,.007.005.006,0,.006,0,.006,0,.006,0,.006,0,.005,0,.007,0,0,0,.008.006h0l.043.032,0,0,.01.008h0l.01.007,0,0,.01.007h0l.009.007,0,0,.01.007h0l.011.008h0l.01.008h0l.011.008h0q.794.6,1.548,1.255Zm4.867,5.354a30.577,30.577,0,0,0-2.274-2.822l.457-.415q.264.292.522.589h0a.081.081,0,0,1,.009.011h0l.01.011h0l.08.093h0l.009.01,0,0,.008.009,0,0,.008.009,0,0,.007.008,0,0,.006.008,0,0,.007.008,0,0,.007.008,0,0,.007.008,0,0,.007.007,0,0,.007.008,0,0,.008.009,0,0,.009.01h0l.01.011,0,0,.008.008,0,0,.005.007,0,.005.005.006,0,.006.005.006,0,.005,0,.006.005.006,0,.006,0,.006,0,.005,0,.006.005.005,0,.006,0,.005.005.006,0,.005.005.006,0,.006.005.006,0,0,.005.007,0,0,.006.007,0,0,.007.008,0,0,.017.021h0l.009.01h0l.006.009,0,0,.007.008,0,0,.006.007,0,0,.006.007,0,0,.006.007,0,0,.006.007,0,0,.006.007,0,0a.024.024,0,0,0,.006.007l0,0,.006.008,0,0,.006.007,0,0,.005.007,0,0,.006.007,0,0,.007.009h0l.027.033h0l.008.009v0l.007.009,0,0,.006.008,0,0,.007.007,0,0,.006.008,0,0,.006.007,0,0,.005.007,0,0,.005.007,0,0,.006.007,0,0,.006.007,0,0,.006.007,0,0,.006.007,0,0,.007.008,0,0,.033.041,0,0,.007.009,0,0,.007.008,0,0,.006.007,0,0,.006.007,0,0,.006.007,0,0,.005.007,0,0,.006.007,0,0,.006.007,0,0,.006.007,0,0,.006.007,0,0,.006.008,0,0,.007.008,0,0,.006.008,0,0,.023.03v0l.006.007,0,0,.006.007,0,0,.006.007,0,0,.006.007,0,0,.005.007,0,0,0,.007,0,.005,0,.007,0,0,.005.007,0,.005,0,.006,0,.006,0,.006,0,.005.006.007,0,.005.005.007,0,.006,0,.006.006.007,0,0,.005.007a.087.087,0,0,1,.01.012l0,0,.006.007,0,0,.006.007,0,.005.005.007,0,0,.006.007,0,.005,0,.006,0,.005,0,.006,0,.006,0,.006,0,.005,0,.007,0,.005,0,.006,0,.006,0,.005.005.006,0,.006,0,.006,0,.005,0,.007,0,0,.006.008,0,0,.008.01v0l.01.012h0l.009.012,0,0,.007.009,0,0,.007.007,0,.005.005.007,0,.005,0,.007,0,.005.005.007,0,0,.006.007,0,0,.006.007,0,.005.005.007,0,0a.024.024,0,0,0,.006.007l0,0,.005.008,0,0,.005.008,0,0,.007.009,0,0,.007.01,0,0,.018.024,0,0,.007.01,0,0,.007.009,0,0,.006.008,0,.005.005.007,0,.005.006.007,0,0,.005.007,0,.005,0,.007,0,.005,0,.007,0,.005.005.007,0,.006.005.007,0,.005.005.007,0,0,.005.007,0,0,.005.008,0,0a.035.035,0,0,1,.007.009l0,0,.009.012h0l.008.011,0,.005.005.007,0,.005,0,.007,0,.006,0,.006,0,.006,0,.006,0,.006,0,.006,0,.006,0,.006,0,.006,0,.006,0,.006,0,.006,0,.006.005.006,0,.006,0,.006,0,.006,0,.006,0,.006,0,.006,0,.007,0,0,.005.007,0,0,.024.032h0l.006.009,0,0,.006.008,0,0,.005.008,0,0,.006.008,0,0,.006.009,0,0,.006.008,0,0,.006.008,0,0,.006.008,0,0,.007.009,0,0,.007.009,0,0,.007.009,0,0,.007.01h0l.067.093h0l.009.012h0l.017.023h0l.008.012h0l.025.035Zm3.072,2.294-.084-.611q.664-.091,1.338-.144h0l.024,0h0l.024,0h.026l.024,0h0l.024,0h.027l.023,0h.078l.023,0h1.686c.131,0,.262,0,.392,0l-.012.617c-.156,0-.314,0-.47,0A23.127,23.127,0,0,0,2133.941,1700.724Zm10.657,1.061a22.756,22.756,0,0,0-3.48-.914l.108-.607a23.335,23.335,0,0,1,2.275.526h0l.028.008h0l.013,0h0l.013,0h0l.013,0h0l.025.008h0l.013,0h0l.011,0h0l.012,0h0l.011,0h0l.012,0h0l.012,0h0l.01,0h0l.011,0h0l.01,0h0l.011,0h0l.011,0h0l.01,0h0l.011,0h0l.009,0h0l.01,0h.005l.009,0,.006,0,.008,0,0,0,.01,0h0l.007,0h.006l.009,0,.005,0,.007,0,.008,0,.006,0,.006,0,.009,0,.007,0h.005l.011,0h0l.007,0h0l.012,0,0,0,.007,0h0l.015,0h0l.015,0h0l.007,0h0l.013,0h0l.024.007h0l.025.008h0l.017.005h0q.351.111.7.232Zm6.314,3.408a22.972,22.972,0,0,0-3.022-1.955l.293-.542q.532.287,1.048.6h0l.015.009h0l.022.013h0l.022.013h0l.014.009h0l.021.013h0l.013.008h0l.021.013h0l.013.008h0l.021.013,0,0,.012.008h0l.007,0,0,0,.011.007,0,0,.01.006,0,0,.006,0,0,0,.011.007,0,0,.007,0h0l.012.007,0,0,.009.007,0,0,.006,0,0,0,.009.006,0,0,.009.005,0,0,.005,0,0,0,.009,0,0,0,.007,0,.006,0,0,0,.005,0,.008.005.005,0,.005,0,.008.005.005,0,.006,0,.007,0,.006,0,0,0,.008.005,0,0,.005,0,.005,0,.008.005,0,0,.009.006,0,0,.007,0,0,0,.008.006,0,0,.007,0,.005,0,.006,0,0,0,.009.005,0,0,.006,0,.006,0,.007,0,0,0,.009.006,0,0,.007,0,0,0,.01.006,0,0,.01.006,0,0,.008,0,0,0,.009.006,0,0,.008.005,0,0,.008.005,0,0,.01.006,0,0,.008.006,0,0,.01.005,0,0,.01.007,0,0,.009.006,0,0,.01.006,0,0,.01.006,0,0,.008.006,0,0,.01.006,0,0,.01.006h0l.009.006,0,0,.01.007,0,0,.01.006h0l.011.007,0,0,.01.007h0l.009.007h0l.01.007,0,0,.011.006h0l.01.007h0l.01.007h0l.011.007h0l.011.007h0l.01.007v0l.022.015h0l.011.008h0l.011.007h0l.011.008h0l.01.007h0l.01.007h0l.011.007h0l.011.008h0l.012.007h0l.011.007h0l.022.016h0l.011.007h0l.022.015,0,0,.01.007h0l.011.008h0l.011.008h0l.022.016h0l.011.008h0l.021.016h0l.011.007h0l.023.016h0l.012.008h0l.023.016h0l.022.016h0l.011.008h0l.023.016h0l.012.008h0l.023.016h0l.035.024h0l.035.025h0c.2.146.405.294.6.446Zm4.95,5.2a22.935,22.935,0,0,0-2.271-2.793l.447-.425a23.594,23.594,0,0,1,2.332,2.869Zm3.093,6.474a22.8,22.8,0,0,0-1.29-3.359l.557-.266.05.1h0l.012.026h0s0,.008.005.012h0l.011.024v0l.006.012h0l.006.012v0l.005.011v0l.005.011h0s0,.007,0,.01v0a.064.064,0,0,1,.005.011v0l0,.008,0,0a.043.043,0,0,0,.005.01v0l0,.009,0,0,0,.007,0,0,0,.009,0,.005,0,.006a.02.02,0,0,1,0,.007l0,.006,0,.006,0,.007,0,.007,0,0a.029.029,0,0,0,0,.009l0,.005,0,.006,0,.005.005.01v0l0,.007v0l.006.013v0l.006.012v0l0,.007,0,0,.005.012,0,0,.01.023h0l.006.014h0l0,.008h0l.007.015h0l.01.023h0l.018.041h0q.137.309.266.623h0c.009.022.018.044.027.066h0l.017.041h0l.01.024h0a.089.089,0,0,1,.006.015h0l.01.023v0l.01.023v0l0,.013v0l.009.022v0s0,.009,0,.013v0l0,.008v0l0,.011,0,0,0,.009,0,.006,0,.006v0l0,.01,0,0,0,.006,0,.006a.061.061,0,0,1,0,.009l0,.005,0,.008,0,.006,0,.007,0,.005,0,.008,0,.006,0,.006,0,.009,0,.005,0,.006,0,.007,0,.007,0,.006,0,.007,0,.007,0,.007,0,.005,0,.01,0,.005,0,.007,0,.005,0,.008v.005l0,.01,0,0a.024.024,0,0,0,0,.008v0a.061.061,0,0,1,0,.01v0l0,.01v0l0,.01v0s0,.007,0,.011v0l0,.01v0l0,.012v0l0,.012h0l.005.012v0a.114.114,0,0,1,0,.012v0l0,.012h0a.092.092,0,0,1,0,.013h0l0,.012v0l0,.012h0l0,.013h0a.185.185,0,0,1,.01.026h0q.271.732.494,1.488Zm1.536,7.136-.616-.017c.006-.216.01-.436.01-.652a23.142,23.142,0,0,0-.188-2.944l.611-.079q.084.649.132,1.309h0l.005.082h0c0,.011,0,.023,0,.035h0v.011h0l0,.035h0a.051.051,0,0,0,0,.01h0v.036a.028.028,0,0,0,0,.01v0c0,.008,0,.015,0,.023v0a.057.057,0,0,1,0,.01v0a.034.034,0,0,1,0,.01h0c0,.008,0,.015,0,.022v.014s0,.006,0,.01h0a.083.083,0,0,1,0,.011h0a.037.037,0,0,1,0,.01v0a.04.04,0,0,0,0,.009v0s0,.007,0,.011h0a.062.062,0,0,0,0,.011v.025c0,.007,0,.015,0,.021v0s0,.006,0,.009v0a.026.026,0,0,1,0,.009v0a.171.171,0,0,1,0,.022v.025a.057.057,0,0,1,0,.011h0s0,.007,0,.011v.026a.081.081,0,0,1,0,.011v.026a.047.047,0,0,1,0,.008v.049h0a.081.081,0,0,0,0,.011v.026a.052.052,0,0,1,0,.011v0a.047.047,0,0,1,0,.008v.015a.03.03,0,0,0,0,.008v0a.037.037,0,0,0,0,.01v.026a.04.04,0,0,1,0,.008v0a.07.07,0,0,0,0,.01v.026s0,.007,0,.01v.037a.073.073,0,0,1,0,.01v.037a.044.044,0,0,0,0,.01v.169a.033.033,0,0,0,0,.011v.158a.018.018,0,0,1,0,.007v.051a.05.05,0,0,0,0,.01v.026a.079.079,0,0,0,0,.01h0v.358h0v.274h0c0,.016,0,.03,0,.046h0v.009h0v.009h0v.009h0C2160.5,1723.786,2160.493,1723.893,2160.49,1724Zm-1.36,7.243-.58-.208a22.856,22.856,0,0,0,.942-3.473l.606.114q-.215,1.149-.54,2.256h0q-.065.221-.134.441h0l-.022.068h0l-.012.041h0l-.009.027h0l-.009.027h0l0,.014h0l-.009.027h0c0,.009-.005.017-.008.027h0a.125.125,0,0,1,0,.014h0a.253.253,0,0,0-.008.026h0a.188.188,0,0,0-.009.026h0l0,.013h0s0,.009,0,.013h0l0,.013v0l-.008.025h0s0,.008,0,.012v0a.037.037,0,0,0,0,.012h0s0,.009,0,.012v0a.087.087,0,0,0,0,.013h0a.086.086,0,0,0,0,.012v0a.113.113,0,0,0,0,.012v0l0,.012h0a.055.055,0,0,0,0,.013v0l0,.013h0l0,.012h0l0,.013v0l0,.011v0a.07.07,0,0,1,0,.012v0l0,.012h0l0,.012v0a.045.045,0,0,0,0,.011v0l0,.01v0l0,.012,0,0,0,.012h0l0,.011v0l0,.011v0a.05.05,0,0,1,0,.01v0l0,.011v0a.091.091,0,0,1,0,.011h0a.058.058,0,0,1,0,.011v0l0,.011v0a.08.08,0,0,1,0,.01v0a.042.042,0,0,1,0,.011v0l0,.01,0,0,0,.01v0l0,.011v0l0,.009v0l0,.01v0l0,.009v0l0,.009v0l0,.01,0,0,0,.008Zm-3.552,6.457-.486-.378a22.986,22.986,0,0,0,1.978-3.007l.54.3,0,.005h0l-.008.014v0c0,.006-.008.014-.012.021v0l-.007.012v0l0,.006,0,0-.006.012v0l-.007.012v0l0,.007,0,0-.005.009,0,0,0,.006-.005.009,0,.005,0,.006,0,.008,0,.005,0,.005,0,.009,0,.006,0,0,0,.007,0,.007,0,.005a.058.058,0,0,1,0,.009l0,0,0,.006,0,0-.005.009,0,0-.005.008,0,0a.035.035,0,0,0,0,.007l0,0-.005.009,0,0,0,.008,0,0,0,.008,0,0-.005.01,0,0,0,.008,0,0a.027.027,0,0,1,0,.009l0,0-.006.01,0,0,0,.008,0,0-.005.011,0,0-.005.01,0,0,0,.008v0l-.006.009,0,0-.006.009,0,0,0,.009v0l-.006.01v0l-.006.009,0,0-.006.009,0,0a.049.049,0,0,1-.006.01v0l-.006.009v0l-.007.01v0l-.006.01v0l-.006.008v0l-.006.01v0l-.007.01v0l0,.009,0,0-.006.01,0,0,0,.008,0,0-.006.008,0,0-.005.01v0l-.006.009v0l-.006.01,0,0-.005.01,0,0,0,.008,0,0-.006.009,0,0,0,.008,0,.005,0,.007,0,0-.006.009,0,0-.005.008,0,0,0,.008,0,0-.005.009,0,0,0,.007,0,0,0,.008,0,.005,0,.008,0,.005,0,.006,0,.005,0,.008,0,.005,0,.008,0,0,0,.006,0,0-.006.009,0,0,0,.007,0,.007,0,.005,0,0-.005.009,0,.005,0,0,0,.008,0,.005,0,.005,0,.007,0,.007,0,.005-.006.008,0,0,0,.006,0,0a.04.04,0,0,1-.006.01l0,0-.007.011v0l0,.007,0,0-.006.011,0,0-.012.021,0,0-.007.012v0l-.013.021v0l-.008.013h0l-.013.022v0l-.014.022h0l-.009.015h0A23.389,23.389,0,0,1,2155.578,1737.7Zm-5.378,5.04-.346-.511a22.91,22.91,0,0,0,2.811-2.247l.422.45q-.316.3-.642.58h0l-.021.018h0l-.01.009h0l-.021.018v0l-.01.009h0l-.01.009h0l-.01.009,0,0-.01.008h0l-.009.007,0,0-.009.008,0,0-.008.006,0,0-.007.005,0,0-.009.008,0,0-.007.006,0,0-.006.005,0,0-.008.007,0,0-.006,0-.005,0-.006.006,0,0-.006.006-.006,0,0,0-.006.005-.006,0,0,0-.006,0-.006.005-.005,0-.007.006-.005,0,0,0,0,0-.009.008,0,0-.019.015,0,0-.01.009,0,0-.019.016h0l-.012.011h0l-.02.017h0l-.034.028h0Q2151.151,1742.095,2150.2,1742.74Zm-6.675,3.123-.17-.593a22.742,22.742,0,0,0,3.37-1.262l.261.559A23.288,23.288,0,0,1,2143.526,1745.863Zm-6.461.9v-.617a23.087,23.087,0,0,0,2.764-.166l.073.612q-1.028.124-2.082.158h-.01l-.056,0h-.69Z" transform="translate(-2075.395 -1685.094)"/>
            </g>
          </g>
          <g id="椭圆_659" data-name="椭圆 659" transform="translate(126.424)">
            <g id="组_46097" data-name="组 46097">
              <circle id="椭圆_3131" data-name="椭圆 3131" class="cls-empty-2" cx="30.835" cy="30.835" r="30.835"/>
            </g>
            <g id="组_46098" data-name="组 46098" class="cls-empty-65" transform="translate(0.127 0.113)">
              <path id="路径_25331" data-name="路径 25331" class="cls-empty-60" d="M2431.318,1735.74v-.389c.771,0,1.55-.038,2.317-.1l.031.388C2432.889,1735.7,2432.1,1735.736,2431.318,1735.74Zm-2.348-.076c-.778-.054-1.564-.14-2.335-.253l.057-.385c.762.112,1.538.2,2.306.25Zm7.028-.3-.061-.385c.761-.12,1.526-.272,2.276-.451l.09.379C2437.544,1735.084,2436.768,1735.238,2436,1735.36Zm-11.673-.381c-.76-.173-1.524-.378-2.27-.608l.115-.372c.736.228,1.49.43,2.241.6Zm16.24-.709-.119-.371c.732-.236,1.467-.5,2.18-.794l.147.36C2442.05,1733.761,2441.307,1734.032,2440.565,1734.271Zm-20.728-.681c-.726-.287-1.45-.607-2.152-.95l.171-.349c.693.338,1.408.654,2.124.938Zm25.073-1.1-.175-.348c.688-.344,1.37-.721,2.031-1.118l.2.333C2446.3,1731.764,2445.606,1732.145,2444.91,1732.494Zm-29.3-.966c-.672-.4-1.339-.821-1.98-1.267l.222-.32c.633.44,1.291.862,1.955,1.251Zm33.318-1.453-.226-.317c.629-.448,1.247-.924,1.838-1.416l.249.3C2450.2,1729.139,2449.569,1729.622,2448.932,1730.074Zm-37.175-1.229c-.6-.493-1.2-1.015-1.764-1.553l.269-.282c.558.531,1.145,1.047,1.741,1.533Zm40.784-1.775-.271-.28c.552-.536,1.091-1.1,1.6-1.678l.292.258C2453.646,1725.956,2453.1,1726.528,2452.541,1727.071Zm-44.188-1.459c-.524-.58-1.032-1.186-1.508-1.8l.308-.239c.47.608.971,1.207,1.489,1.779Zm47.3-2.058-.31-.235c.465-.614.913-1.254,1.33-1.9l.327.211C2456.578,1722.283,2456.125,1722.931,2455.654,1723.553Zm-50.176-1.655c-.428-.651-.838-1.327-1.216-2.01l.341-.188c.374.674.778,1.341,1.2,1.984Zm52.719-2.3-.343-.185c.367-.679.711-1.38,1.024-2.083l.356.159C2458.917,1718.206,2458.568,1718.915,2458.2,1719.6Zm-54.993-1.81c-.324-.707-.625-1.437-.9-2.17l.366-.135c.266.724.564,1.445.883,2.143Zm56.9-2.485-.366-.13c.257-.726.49-1.471.692-2.214l.375.1C2460.6,1713.819,2460.368,1714.573,2460.107,1715.309Zm-58.523-1.921c-.212-.75-.4-1.518-.551-2.284l.381-.076c.152.756.335,1.514.544,2.255Zm59.75-2.612-.383-.073c.143-.757.259-1.528.344-2.293l.387.043C2461.6,1709.228,2461.479,1710.01,2461.334,1710.776Zm-60.676-1.992c-.095-.774-.16-1.562-.2-2.341l.389-.018c.035.769.1,1.546.193,2.312Zm61.2-2.674-.389-.014q.018-.536.019-1.077,0-.624-.025-1.243l.388-.015q.026.626.026,1.258Q2461.873,1705.567,2461.854,1706.11Zm-61.021-2-.389-.011c.023-.78.077-1.568.159-2.344l.386.041C2400.908,1702.557,2400.855,1703.335,2400.833,1704.105Zm60.444-2.642c-.089-.765-.209-1.537-.357-2.292l.382-.074c.149.765.271,1.546.362,2.321Zm-59.957-1.968-.383-.071c.141-.768.314-1.54.514-2.292l.376.1C2401.631,1697.976,2401.46,1698.738,2401.32,1699.5Zm59.068-2.582c-.205-.742-.442-1.486-.7-2.21l.366-.132c.266.734.505,1.487.713,2.239Zm-57.88-1.9-.368-.128c.257-.738.547-1.475.861-2.189l.357.156C2403.048,1693.559,2402.762,1694.286,2402.508,1695.015Zm56.3-2.458c-.316-.7-.665-1.4-1.034-2.075l.341-.187c.375.684.727,1.391,1.048,2.1Zm-54.442-1.792-.344-.183c.367-.688.766-1.371,1.185-2.03l.329.209C2405.126,1689.41,2404.732,1690.085,2404.37,1690.764Zm52.219-2.273c-.419-.645-.87-1.282-1.339-1.894l.309-.237c.475.62.931,1.265,1.356,1.918Zm-49.729-1.64-.312-.233c.468-.625.966-1.24,1.48-1.826l.293.257C2407.814,1685.627,2407.323,1686.233,2406.86,1686.851Zm46.911-2.04c-.514-.575-1.056-1.136-1.611-1.67l.269-.281c.563.54,1.111,1.109,1.632,1.691Zm-43.856-1.449-.272-.278c.558-.547,1.143-1.079,1.739-1.58l.25.3C2411.043,1682.3,2410.466,1682.821,2409.915,1683.361Zm40.512-1.763c-.594-.49-1.216-.963-1.846-1.406l.224-.319c.638.449,1.267.928,1.869,1.425Zm-36.965-1.222-.227-.316c.634-.456,1.292-.892,1.958-1.3l.2.333C2414.738,1679.5,2414.087,1679.926,2413.461,1680.376Zm33.171-1.446c-.663-.394-1.349-.767-2.039-1.109l.173-.35c.7.346,1.394.724,2.065,1.124Zm-29.213-.964-.177-.347c.695-.354,1.412-.684,2.132-.983l.15.36C2418.814,1677.29,2418.106,1677.616,2417.42,1677.965Zm25.055-1.094c-.715-.288-1.451-.552-2.186-.784l.117-.372c.745.235,1.49.5,2.214.794Zm-20.778-.682-.121-.37c.741-.243,1.5-.46,2.26-.646l.092.379C2423.18,1675.735,2422.429,1675.949,2421.7,1676.189Zm16.354-.714c-.75-.174-1.516-.322-2.278-.438l.059-.384c.771.118,1.547.267,2.307.444Zm-11.851-.386-.063-.384c.769-.126,1.553-.224,2.331-.292l.033.388C2427.734,1674.867,2426.959,1674.964,2426.2,1675.089Zm7.269-.315c-.768-.058-1.548-.087-2.318-.087l-.332,0,0-.389.335,0c.781,0,1.571.03,2.347.088Z" transform="translate(-2400.443 -1674.297)"/>
            </g>
          </g>
        </g>
      </g>
    </g>
  </g>
</svg>
